<?xml version="1.0" encoding="utf-8"?>
<!-- Generator: Adobe Illustrator 25.4.3, SVG Export Plug-In . SVG Version: 6.00 Build 0)  -->
<svg version="1.1" id="Layer_1" xmlns="http://www.w3.org/2000/svg" xmlns:xlink="http://www.w3.org/1999/xlink" x="0px" y="0px"
	 viewBox="0 0 360 360" style="enable-background:new 0 0 360 360;" xml:space="preserve">
<style type="text/css">
	.st0{fill:#2BAAE2;}
	.st1{fill:#1172BA;}
</style>
<g>
	<path class="st0" d="M21.35,165.6c4.59,80.49,65.36,146.92,145.98,145.98c63.24-0.73,51.79-14.22,63.24-0.73
		c5.38,6.34,15.2-3.77,25.93-12.97c11.44-9.79,29.02-14.03,26.06-17.52c-14.13-16.65,34.45-30.03,30.75-114.76
		c-3.29-75.27-30.88-66.54-23.19-85.32c2.86-6.99-7.69-11.47-16.33-20.12c-12.97-12.97-11.12-19.11-17.75-13.7
		c-16.82,13.7-8.21-23.98-88.71-26.84C92.27,16.94,65.01,70.87,59.79,66.08c-6.43-5.91-5.39,1.44-10.75,7.05
		c-3.09,3.24-11.16,6.13-4.32,12.97C49.04,90.42,18.79,120.67,21.35,165.6z"/>
	<path class="st1" d="M224.24,154.51c0,6.11,11.07,16.6,16.6,22.14c8.65,8.65,44.28-11.07,27.67-22.14
		c-5.09-3.39-11.2-16.54-22.14-11.07C235.31,148.97,224.24,148.39,224.24,154.51z"/>
	<path class="st1" d="M73.91,105.38c5.53,16.6,15.82,0,38.74,0s44.28,27.67,44.28,0c0-6.11-16.99-34.92-38.74-27.67
		C101.58,83.24,71.97,99.58,73.91,105.38z"/>
	<path class="st1" d="M165.94,248.59c0,15.28-15.45,27.67-27.67,27.67s-36.64-22.84-22.14-27.67c16.6-5.53,9.91-27.67,22.14-27.67
		S165.94,233.31,165.94,248.59z"/>
	
		<ellipse transform="matrix(0.7071 -0.7071 0.7071 0.7071 37.3572 212.1947)" class="st1" cx="274.82" cy="61" rx="5.98" ry="22.71"/>
	<path class="st1" d="M230.57,310.85c0,8.64,17.29,0,30.25-12.97c11.72-11.72,25.93-12.97,21.61-17.29
		c-2.21-2.21-13.59,3.34-27.95,11.64C240.13,300.52,230.57,307.72,230.57,310.85z"/>
	<path class="st1" d="M42.55,79.77c1.62,1.75,4.64-1.04,8.48-4.61s8.27-8.93,6.65-10.68c-1.62-1.75-3.98-0.01-7.83,3.56
		S40.93,78.02,42.55,79.77z"/>
</g>
</svg>
