<?xml version="1.0" encoding="utf-8"?>
<!-- Generator: Adobe Illustrator 25.4.3, SVG Export Plug-In . SVG Version: 6.00 Build 0)  -->
<svg version="1.1" id="Layer_1" xmlns="http://www.w3.org/2000/svg" xmlns:xlink="http://www.w3.org/1999/xlink" x="0px" y="0px"
	 viewBox="0 0 360 360" style="enable-background:new 0 0 360 360;" xml:space="preserve">
<style type="text/css">
	.st0{fill:#2BAAE2;}
	.st1{fill:#1172BA;}
	.st2{fill:none;stroke:#676767;stroke-width:10;stroke-miterlimit:10;}
	.st3{fill:#CCCCCC;}
	.st4{fill:#676767;stroke:#676767;stroke-width:4;stroke-miterlimit:10;}
</style>
<g>
	<g>
		<path class="st0" d="M77.44,164.88c4.13,72.46,58.84,132.25,131.41,131.41c56.93-0.66,46.62-12.8,56.93-0.66
			c4.84,5.7,13.68-3.4,23.34-11.67c10.29-8.81,26.12-12.63,23.46-15.77c-12.72-14.99,31.01-27.03,27.68-103.31
			c-2.96-67.76-27.8-59.89-20.88-76.8c2.57-6.29-6.92-10.33-14.7-18.11c-11.67-11.67-10.01-17.2-15.98-12.33
			c-15.14,12.33-7.39-21.58-79.85-24.17c-67.58-2.41-92.11,46.14-96.81,41.82c-5.79-5.32-4.86,1.3-9.68,6.35
			c-2.78,2.91-10.04,5.52-3.89,11.67C102.37,97.2,75.13,124.44,77.44,164.88z"/>
		<path class="st1" d="M260.08,154.89c0,5.5,9.96,14.95,14.95,19.93c7.78,7.78,39.86-9.96,24.91-19.93
			c-4.58-3.05-10.08-14.89-19.93-9.96C270.04,149.91,260.08,149.39,260.08,154.89z"/>
		<path class="st1" d="M124.75,110.67c4.98,14.95,14.24,0,34.88,0s39.86,24.91,39.86,0c0-5.5-15.3-31.44-34.88-24.91
			C149.66,90.74,123.01,105.45,124.75,110.67z"/>
		<path class="st1" d="M207.6,239.59c0,13.76-13.9,24.91-24.91,24.91s-32.98-20.56-19.93-24.91c14.95-4.98,8.92-24.91,19.93-24.91
			S207.6,225.83,207.6,239.59z"/>
		
			<ellipse transform="matrix(0.7071 -0.7071 0.7071 0.7071 39.5017 236.8103)" class="st1" cx="305.61" cy="70.72" rx="5.38" ry="20.45"/>
		<path class="st1" d="M265.78,295.62c0,7.78,15.56,0,27.23-11.67c10.55-10.55,23.34-11.67,19.45-15.56
			c-1.99-1.99-12.23,3.01-25.16,10.47C274.38,286.33,265.78,292.81,265.78,295.62z"/>
		<path class="st1" d="M96.53,87.62c1.46,1.58,4.17-0.93,7.64-4.15c3.46-3.21,7.45-8.04,5.99-9.62c-1.46-1.58-3.58-0.01-7.04,3.21
			C99.64,80.28,95.06,86.04,96.53,87.62z"/>
	</g>
	<g>
		<ellipse class="st2" cx="71.44" cy="195.47" rx="44.81" ry="51.94"/>
		<path class="st3" d="M129.53,322.77H15.39c-1.66,0-3.01-1.35-3.01-3.01V207.65c0-1.66,1.35-3.01,3.01-3.01h114.15
			c1.66,0,3.01,1.35,3.01,3.01v112.11C132.54,321.41,131.19,322.77,129.53,322.77z"/>
		<path class="st4" d="M83.19,251.48c0-5.62-4.91-10.18-10.97-10.18c-6.06,0-10.97,4.56-10.97,10.18c0,4,2.5,7.42,6.11,9.09v31.65
			h10.18v-31.88C80.9,258.59,83.19,255.3,83.19,251.48z"/>
	</g>
</g>
</svg>
