<?xml version="1.0" encoding="utf-8"?>
<!-- Generator: Adobe Illustrator 25.4.3, SVG Export Plug-In . SVG Version: 6.00 Build 0)  -->
<svg version="1.1" id="Layer_1" xmlns="http://www.w3.org/2000/svg" xmlns:xlink="http://www.w3.org/1999/xlink" x="0px" y="0px"
	 viewBox="0 0 360 360" style="enable-background:new 0 0 360 360;" xml:space="preserve">
<style type="text/css">
	.st0{fill:#B4B4B4;}
	.st1{fill:#989898;}
</style>
<g>
	<path class="st0" d="M36.19,178.73c4.39,76.95,62.48,140.45,139.55,139.55c60.45-0.7,49.51-13.59,60.45-0.7
		c5.14,6.06,14.53-3.61,24.79-12.4c10.93-9.36,27.74-13.41,24.91-16.75c-13.51-15.92,32.93-28.7,29.4-109.71
		c-3.14-71.96-29.52-63.6-22.17-81.56c2.73-6.68-7.35-10.97-15.61-19.23c-12.4-12.4-10.63-18.26-16.97-13.1
		c-16.08,13.1-7.85-22.92-84.8-25.66c-71.76-2.56-97.82,49-102.8,44.41c-6.14-5.65-5.16,1.38-10.28,6.74
		c-2.95,3.09-10.66,5.86-4.13,12.4C62.66,106.87,33.74,135.79,36.19,178.73z"/>
	<path class="st1" d="M230.14,168.13c0,5.84,10.58,15.87,15.87,21.16c8.26,8.26,42.33-10.58,26.45-21.16
		c-4.86-3.24-10.71-15.81-21.16-10.58C240.72,162.84,230.14,162.29,230.14,168.13z"/>
	<path class="st1" d="M86.43,121.17c5.29,15.87,15.12,0,37.04,0s42.33,26.45,42.33,0c0-5.84-16.25-33.38-37.04-26.45
		C112.88,100,84.58,115.62,86.43,121.17z"/>
	<path class="st1" d="M174.41,258.07c0,14.61-14.77,26.45-26.45,26.45c-11.69,0-35.02-21.83-21.16-26.45
		c15.87-5.29,9.48-26.45,21.16-26.45C159.64,231.62,174.41,243.46,174.41,258.07z"/>
	
		<ellipse transform="matrix(0.7071 -0.7071 0.7071 0.7071 25.885 219.9863)" class="st1" cx="278.49" cy="78.75" rx="5.72" ry="21.71"/>
	<path class="st1" d="M236.19,317.58c0,8.26,16.53,0,28.92-12.4c11.21-11.21,24.79-12.4,20.66-16.53
		c-2.11-2.11-12.99,3.2-26.72,11.12C245.33,307.71,236.19,314.6,236.19,317.58z"/>
	<path class="st1" d="M56.46,96.69c1.55,1.67,4.43-0.99,8.11-4.4c3.68-3.41,7.91-8.54,6.36-10.21c-1.55-1.67-3.8-0.01-7.48,3.41
		C59.76,88.89,54.9,95.02,56.46,96.69z"/>
</g>
</svg>
