<?xml version="1.0" encoding="utf-8"?>
<!-- Generator: Adobe Illustrator 25.4.3, SVG Export Plug-In . SVG Version: 6.00 Build 0)  -->
<svg version="1.1" id="Layer_1" xmlns="http://www.w3.org/2000/svg" xmlns:xlink="http://www.w3.org/1999/xlink" x="0px" y="0px"
	 viewBox="0 0 360 360" style="enable-background:new 0 0 360 360;" xml:space="preserve">
<style type="text/css">
	.st0{fill:#B4B4B4;}
	.st1{fill:#989898;}
	.st2{fill:none;stroke:#676767;stroke-width:10;stroke-miterlimit:10;}
	.st3{fill:#CCCCCC;}
	.st4{fill:#676767;stroke:#676767;stroke-width:4;stroke-miterlimit:10;}
</style>
<g>
	<g>
		<path class="st0" d="M79.13,159.33c4.1,71.84,58.34,131.13,130.29,130.29c56.44-0.66,46.22-12.69,56.44-0.66
			c4.8,5.65,13.56-3.37,23.15-11.57c10.21-8.74,25.9-12.52,23.26-15.63c-12.62-14.86,30.75-26.8,27.45-102.43
			c-2.93-67.18-27.56-59.38-20.7-76.15c2.55-6.23-6.86-10.24-14.58-17.96c-11.57-11.57-9.92-17.05-15.85-12.23
			c-15.01,12.23-7.33-21.4-79.17-23.96c-67-2.39-91.33,45.75-95.98,41.47c-5.74-5.28-4.81,1.29-9.59,6.29
			c-2.76,2.89-9.96,5.47-3.86,11.57C103.84,92.23,76.84,119.23,79.13,159.33z"/>
		<path class="st1" d="M260.21,149.43c0,5.46,9.88,14.82,14.82,19.76c7.72,7.72,39.52-9.88,24.7-19.76
			c-4.54-3.03-10-14.76-19.76-9.88C270.09,144.49,260.21,143.97,260.21,149.43z"/>
		<path class="st1" d="M126.03,105.58c4.94,14.82,14.12,0,34.58,0s39.52,24.7,39.52,0c0-5.46-15.17-31.17-34.58-24.7
			C150.73,85.82,124.31,100.4,126.03,105.58z"/>
		<path class="st1" d="M208.18,233.4c0,13.64-13.79,24.7-24.7,24.7c-10.91,0-32.7-20.39-19.76-24.7c14.82-4.94,8.85-24.7,19.76-24.7
			C194.39,208.7,208.18,219.76,208.18,233.4z"/>
		
			<ellipse transform="matrix(0.7071 -0.7071 0.7071 0.7071 42.785 235.2407)" class="st1" cx="305.35" cy="65.97" rx="5.34" ry="20.27"/>
		<path class="st1" d="M265.86,288.96c0,7.72,15.43,0,27-11.57c10.46-10.46,23.15-11.57,19.29-15.43
			c-1.97-1.97-12.13,2.99-24.94,10.38C274.39,279.74,265.86,286.18,265.86,288.96z"/>
		<path class="st1" d="M98.05,82.73c1.45,1.56,4.14-0.92,7.57-4.11s7.38-7.97,5.93-9.54c-1.45-1.56-3.55-0.01-6.98,3.18
			S96.6,81.17,98.05,82.73z"/>
	</g>
	<g>
		<ellipse class="st2" cx="76.78" cy="205.65" rx="44.43" ry="51.49"/>
		<path class="st3" d="M134.35,331.86H21.23c-1.66,0-3.01-1.35-3.01-3.01v-111.1c0-1.66,1.35-3.01,3.01-3.01h113.12
			c1.66,0,3.01,1.35,3.01,3.01v111.1C137.36,330.5,136.01,331.86,134.35,331.86z"/>
		<path class="st4" d="M88.43,261.18c0-5.58-4.87-10.1-10.87-10.1c-6.01,0-10.87,4.52-10.87,10.1c0,3.96,2.48,7.36,6.06,9.01v31.38
			h10.1v-31.61C86.16,268.23,88.43,264.97,88.43,261.18z"/>
	</g>
</g>
</svg>
