<?xml version="1.0" encoding="utf-8"?>
<!-- Generator: Adobe Illustrator 25.4.3, SVG Export Plug-In . SVG Version: 6.00 Build 0)  -->
<svg version="1.1" id="Layer_1" xmlns="http://www.w3.org/2000/svg" xmlns:xlink="http://www.w3.org/1999/xlink" x="0px" y="0px"
	 viewBox="0 0 360 360" style="enable-background:new 0 0 360 360;" xml:space="preserve">
<style type="text/css">
	.st0{fill:#8DC641;}
	.st1{fill:#3DB54A;}
	.st2{fill:none;stroke:#676767;stroke-width:10;stroke-miterlimit:10;}
	.st3{fill:#CCCCCC;}
	.st4{fill:#676767;stroke:#676767;stroke-width:4;stroke-miterlimit:10;}
</style>
<g>
	<g>
		<path class="st0" d="M73.48,156.03c4.18,73.2,59.45,133.62,132.76,132.76c57.51-0.67,47.1-12.93,57.51-0.67
			c4.89,5.76,13.82-3.43,23.58-11.79c10.4-8.9,26.39-12.76,23.7-15.93c-12.85-15.14,31.33-27.31,27.97-104.37
			c-2.99-68.46-28.08-60.51-21.09-77.59c2.6-6.35-6.99-10.44-14.85-18.3c-11.79-11.79-10.11-17.38-16.15-12.46
			c-15.3,12.46-7.47-21.81-80.67-24.41c-68.27-2.43-93.06,46.62-97.8,42.25c-5.85-5.38-4.91,1.31-9.78,6.41
			c-2.81,2.94-10.15,5.58-3.93,11.79C98.67,87.66,71.15,115.17,73.48,156.03z"/>
		<path class="st1" d="M258,145.95c0,5.56,10.07,15.1,15.1,20.13c7.86,7.86,40.27-10.07,25.17-20.13
			c-4.63-3.08-10.19-15.04-20.13-10.07C268.07,140.91,258,140.39,258,145.95z"/>
		<path class="st1" d="M121.28,101.27c5.03,15.1,14.39,0,35.23,0s40.27,25.17,40.27,0c0-5.56-15.46-31.76-35.23-25.17
			C146.45,81.13,119.52,95.99,121.28,101.27z"/>
		<path class="st1" d="M204.98,231.52c0,13.9-14.05,25.17-25.17,25.17s-33.32-20.77-20.13-25.17c15.1-5.03,9.01-25.17,20.13-25.17
			S204.98,217.62,204.98,231.52z"/>
		
			<ellipse transform="matrix(0.7071 -0.7071 0.7071 0.7071 45.9712 232.801)" class="st1" cx="304" cy="60.91" rx="5.44" ry="20.66"/>
		<path class="st1" d="M263.76,288.13c0,7.86,15.72,0,27.52-11.79c10.66-10.66,23.58-11.79,19.65-15.72
			c-2.01-2.01-12.36,3.04-25.42,10.58S263.76,285.29,263.76,288.13z"/>
		<path class="st1" d="M92.76,77.98c1.48,1.59,4.22-0.94,7.72-4.19c3.5-3.25,7.52-8.12,6.05-9.72c-1.48-1.59-3.62-0.01-7.12,3.24
			C95.91,70.56,91.29,76.39,92.76,77.98z"/>
	</g>
	<g>
		<ellipse class="st2" cx="75.3" cy="205.85" rx="45.27" ry="52.47"/>
		<path class="st3" d="M134.02,334.45H18.63c-1.66,0-3.01-1.35-3.01-3.01V218.12c0-1.66,1.35-3.01,3.01-3.01h115.39
			c1.66,0,3.01,1.35,3.01,3.01v113.33C137.03,333.1,135.67,334.45,134.02,334.45z"/>
		<path class="st4" d="M87.17,262.43c0-5.68-4.96-10.29-11.08-10.29c-6.12,0-11.08,4.61-11.08,10.29c0,4.04,2.53,7.5,6.17,9.18
			v31.97h10.29v-32.21C84.85,269.61,87.17,266.29,87.17,262.43z"/>
	</g>
</g>
</svg>
