<?xml version="1.0" encoding="utf-8"?>
<!-- Generator: Adobe Illustrator 25.4.3, SVG Export Plug-In . SVG Version: 6.00 Build 0)  -->
<svg version="1.1" id="Layer_1" xmlns="http://www.w3.org/2000/svg" xmlns:xlink="http://www.w3.org/1999/xlink" x="0px" y="0px"
	 viewBox="0 0 360 360" style="enable-background:new 0 0 360 360;" xml:space="preserve">
<style type="text/css">
	.st0{fill:#8DC641;}
	.st1{fill:#3DB54A;}
</style>
<g>
	<path class="st0" d="M31.65,170.2c4.41,77.3,62.77,141.09,140.19,140.19c60.73-0.71,49.73-13.65,60.73-0.71
		c5.17,6.08,14.59-3.62,24.9-12.45c10.98-9.4,27.87-13.47,25.02-16.82c-13.57-15.99,33.09-28.84,29.53-110.21
		c-3.16-72.29-29.65-63.9-22.27-81.93c2.75-6.71-7.38-11.02-15.68-19.32c-12.45-12.45-10.68-18.35-17.05-13.16
		c-16.16,13.16-7.89-23.03-85.19-25.78C99.75,27.43,73.57,79.23,68.57,74.62c-6.17-5.68-5.18,1.38-10.32,6.77
		c-2.97,3.11-10.71,5.89-4.15,12.45C58.24,98,29.19,127.05,31.65,170.2z"/>
	<path class="st1" d="M226.49,159.54c0,5.87,10.63,15.95,15.95,21.26c8.3,8.3,42.52-10.63,26.58-21.26
		c-4.88-3.26-10.76-15.88-21.26-10.63C237.12,154.23,226.49,153.67,226.49,159.54z"/>
	<path class="st1" d="M82.12,112.36c5.32,15.95,15.19,0,37.21,0s42.52,26.58,42.52,0c0-5.87-16.32-33.54-37.21-26.58
		C108.69,91.1,80.26,106.79,82.12,112.36z"/>
	<path class="st1" d="M170.5,249.9c0,14.68-14.83,26.58-26.58,26.58c-11.74,0-35.19-21.93-21.26-26.58
		c15.95-5.32,9.52-26.58,21.26-26.58C155.67,223.33,170.5,235.22,170.5,249.9z"/>
	
		<ellipse transform="matrix(0.7071 -0.7071 0.7071 0.7071 31.2458 214.9303)" class="st1" cx="275.07" cy="69.75" rx="5.74" ry="21.81"/>
	<path class="st1" d="M232.57,309.68c0,8.3,16.6,0,29.06-12.45c11.26-11.26,24.9-12.45,20.75-16.6
		c-2.12-2.12-13.05,3.21-26.84,11.17C241.75,299.76,232.57,306.69,232.57,309.68z"/>
	<path class="st1" d="M52.01,87.77c1.56,1.68,4.45-0.99,8.15-4.42c3.7-3.43,7.94-8.58,6.39-10.26s-3.82-0.01-7.52,3.42
		C55.33,79.94,50.45,86.09,52.01,87.77z"/>
</g>
</svg>
