<?xml version="1.0" encoding="utf-8"?>
<!-- Generator: Adobe Illustrator 25.4.3, SVG Export Plug-In . SVG Version: 6.00 Build 0)  -->
<svg version="1.1" id="Layer_1" xmlns="http://www.w3.org/2000/svg" xmlns:xlink="http://www.w3.org/1999/xlink" x="0px" y="0px"
	 viewBox="0 0 360 360" style="enable-background:new 0 0 360 360;" xml:space="preserve">
<style type="text/css">
	.st0{fill:#939598;}
	.st1{fill:#BCBEC0;}
	.st2{fill:#6D6E71;}
</style>
<g>
	<path class="st0" d="M296.29,147.25c-10.68-42.57-41.79-76.97-82.35-92.21c-5.81-2.18-11.11-6.2-13.78-11.81
		c-4.76-10.01-17.99-17.22-33.59-17.22c-15.51,0-22.58,10.72-29.69,19.29c-4.08,2.51-10.1,6.2-14.19,8.71
		c-55.89,15.85-89.01,64.76-89.01,125.77c0,48.16,15.46,83.35,53.71,106.8c7.01,5.88,4.97,15.21,4.97,20.08
		c0,13.56,14.59,24.55,32.6,24.55c15.25,0,27.01-17.83,38.53-18.04c3.51,0.28,0,0,3.58,0c57.12,0,101.1-21.22,120.11-71.69
		c2.41-4.59,6.79-7.13,9.24-7.13c14,0,27.73-21.12,27.73-39.56c0-13.85-6.41-25.72-15.52-30.77
		C302.33,160.53,298.05,154.24,296.29,147.25z"/>
	<path class="st1" d="M170.54,129.15c-5.95-41.99,61.52-61.21,38.91-76.25c-3.24-2.15-6.7-4.39-9.28-9.67
		c-2.64-5.41-9.78-11.78-18.17-14.75c-5.86-2.08-13.56-2.46-16.84-2.46c-11.9,0-24.31,10.84-28.28,19.29
		c-3.65,1.87-11.09,6.39-14.19,8.71c-15.23,3.56-36.43,14.24-52.44,30.39c-22.78,22.99-38.18,59.1-36.57,93.91
		c2.2,47.45,10.14,68.01,31.47,91.14c9.73,10.39,17.83,14.21,24.46,19.84c5.98,5.08,107.9,19.94,96.67-15.43
		c-5.26-16.57-29.01-29.26-32.22-43.6c-0.05-8.21,13.03-13.01,16.54-15.2c6.62-4.14,25.11-16.31,25.11-34.51
		c0-13.66-13.22-29.88-18.31-34.86C173.9,142.25,171.52,136.04,170.54,129.15z"/>
	<path class="st2" d="M194.21,47.72c-7.4,5.79-11.49,12.66-25.05,9.93c-14.06-2.82-25.05-0.16-25.05-9.93s9.4-17.69,25.05-17.69
		C183,30.02,201.91,41.7,194.21,47.72z"/>
	<path class="st2" d="M182.91,165.61c11.64,17.56-4.21,28.48-23.99,41.6c-19.79,13.12-36.02,23.47-47.66,5.91
		s-5.04-42.42,14.75-55.54C145.79,144.46,171.27,148.05,182.91,165.61z"/>
	<path class="st2" d="M132.14,236.27c1.56,5.58-3.51,7.1-9.8,8.86c-6.29,1.76-11.41,3.09-12.97-2.49
		c-1.56-5.58,2.27-11.53,8.56-13.29C124.22,227.59,130.58,230.69,132.14,236.27z"/>
	<path class="st2" d="M100.59,224.38c-5.3,9.34-5.56,18.4-12.43,18.4c-6.86,0-18.45-4.43-12.43-18.4c4.02-9.33,5.56-18.4,12.43-18.4
		C95.03,205.99,105.61,215.54,100.59,224.38z"/>
	<path class="st0" d="M97.77,307.14c1.75-6.44,11.22-3.98,22.87-0.81s21.06,5.84,19.31,12.28c-1.75,6.44-12.62,9.09-24.26,5.92
		C104.04,321.37,96.01,313.58,97.77,307.14z"/>
	<path class="st2" d="M292.3,166.77c5.87-8.44,23.39,14,23.83,29.76s-7.68,25.77-17.03,29.03c-14.21,4.95-6.98-15.25-18.61-28.04
		C270.19,186.21,279.75,184.82,292.3,166.77z"/>
</g>
</svg>
