<?xml version="1.0" encoding="utf-8"?>
<!-- Generator: Adobe Illustrator 25.4.3, SVG Export Plug-In . SVG Version: 6.00 Build 0)  -->
<svg version="1.1" id="Layer_1" xmlns="http://www.w3.org/2000/svg" xmlns:xlink="http://www.w3.org/1999/xlink" x="0px" y="0px"
	 viewBox="0 0 360 360" style="enable-background:new 0 0 360 360;" xml:space="preserve">
<style type="text/css">
	.st0{fill:#FBB03C;}
	.st1{fill:#F79421;}
	.st2{fill:none;stroke:#676767;stroke-width:10;stroke-miterlimit:10;}
	.st3{fill:#CCCCCC;}
	.st4{fill:#676767;stroke:#676767;stroke-width:4;stroke-miterlimit:10;}
</style>
<g>
	<g>
		<path class="st0" d="M31.46,138.45c-0.23,66.65,46.6,124.49,113.17,127.75c52.22,2.55,43.44-9.15,52.22,2.55
			c4.12,5.5,12.73-2.36,22.05-9.4c9.93-7.51,24.64-10.13,22.38-13.15c-10.83-14.44,29.93-23.06,31.1-93.16
			c1.05-62.28-22.16-56.44-14.88-71.56c2.71-5.62-5.77-9.85-12.47-17.42c-10.05-11.35-8.22-16.32-13.97-12.19
			c-14.57,10.47-5.58-20.2-71.86-26.58C97.4,19.33,72.22,62.47,68.15,58.25c-5.01-5.2-4.52,0.92-9.22,5.28
			c-2.71,2.52-9.51,4.5-4.21,10.48C58.07,77.8,31.59,101.25,31.46,138.45z"/>
		<path class="st1" d="M199.44,139.43c-0.31,5.04,8.31,14.25,12.6,19.1c6.7,7.57,37.09-6.92,23.94-16.89
			c-4.03-3.05-8.42-14.21-17.72-10.24C208.85,135.41,199.74,134.38,199.44,139.43z"/>
		<path class="st1" d="M77.84,91.38c3.74,13.98,13.05,0.79,31.97,1.93s35.15,25.05,36.54,2.21c0.31-5.04-12.28-29.67-30.59-24.77
			C101.78,74.5,76.53,86.5,77.84,91.38z"/>
		<path class="st1" d="M146.63,214.16c-0.76,12.61-14.13,22.06-24.22,21.45c-10.09-0.61-29.09-20.68-16.89-23.94
			c13.98-3.74,9.56-22.34,19.65-21.73C135.27,190.55,147.4,201.54,146.63,214.16z"/>
		
			<ellipse transform="matrix(0.7485 -0.6631 0.6631 0.7485 18.8579 179.3168)" class="st1" cx="245.84" cy="64.8" rx="4.94" ry="18.78"/>
		<path class="st1" d="M196.86,268.75c-0.43,7.13,14.27,0.86,25.61-9.19c10.26-9.09,22.05-9.4,18.7-13.19
			c-1.71-1.93-11.38,2.08-23.64,8.21C205.26,260.7,197.01,266.17,196.86,268.75z"/>
		<path class="st1" d="M53.24,68.69c1.25,1.53,3.88-0.62,7.23-3.38c3.35-2.75,7.27-6.96,6.02-8.48c-1.25-1.53-3.28-0.2-6.64,2.55
			S51.99,67.17,53.24,68.69z"/>
	</g>
	<g>
		<ellipse class="st2" cx="265.32" cy="213.66" rx="41.15" ry="47.7"/>
		<path class="st3" d="M318.42,330.56H214.09c-1.66,0-3.01-1.35-3.01-3.01V225.08c0-1.66,1.35-3.01,3.01-3.01h104.33
			c1.66,0,3.01,1.35,3.01,3.01v102.46C321.43,329.2,320.08,330.56,318.42,330.56z"/>
		<path class="st4" d="M276.11,265.09c0-5.17-4.51-9.35-10.07-9.35c-5.56,0-10.07,4.19-10.07,9.35c0,3.67,2.3,6.81,5.61,8.35v29.06
			h9.35v-29.28C274.01,271.62,276.11,268.6,276.11,265.09z"/>
	</g>
</g>
</svg>
