<?xml version="1.0" encoding="utf-8"?>
<!-- Generator: Adobe Illustrator 25.4.3, SVG Export Plug-In . SVG Version: 6.00 Build 0)  -->
<svg version="1.1" id="Layer_1" xmlns="http://www.w3.org/2000/svg" xmlns:xlink="http://www.w3.org/1999/xlink" x="0px" y="0px"
	 viewBox="0 0 360 360" style="enable-background:new 0 0 360 360;" xml:space="preserve">
<style type="text/css">
	.st0{fill:#E3597A;}
	.st1{fill:#D41C5C;}
</style>
<g>
	<path class="st0" d="M27.39,164.55c-0.28,82.32,57.56,153.77,139.78,157.78c64.5,3.15,53.66-11.3,64.5,3.15
		c5.09,6.79,15.72-2.91,27.23-11.62c12.26-9.27,30.44-12.51,27.64-16.25c-13.38-17.84,36.96-28.48,38.42-115.07
		c1.29-76.92-27.37-69.72-18.38-88.38c3.35-6.94-7.13-12.17-15.4-21.51c-12.42-14.01-10.16-20.16-17.25-15.06
		c-17.99,12.93-6.89-24.94-88.75-32.83C108.83,17.41,77.72,70.7,72.7,65.49c-6.19-6.42-5.59,1.14-11.39,6.52
		c-3.35,3.11-11.75,5.56-5.2,12.95C60.24,89.63,27.54,118.6,27.39,164.55z"/>
	<path class="st1" d="M234.85,165.75c-0.38,6.23,10.26,17.6,15.56,23.59c8.28,9.34,45.81-8.55,29.57-20.86
		c-4.98-3.77-10.4-17.55-21.88-12.65C246.48,160.79,235.23,159.52,234.85,165.75z"/>
	<path class="st1" d="M84.66,106.41c4.62,17.26,16.12,0.98,39.49,2.39s43.42,30.93,45.13,2.73c0.38-6.23-15.17-36.64-37.78-30.59
		C114.23,85.55,83.05,100.38,84.66,106.41z"/>
	<path class="st1" d="M169.63,258.05c-0.94,15.58-17.45,27.25-29.91,26.5c-12.46-0.75-35.93-25.54-20.86-29.57
		c17.26-4.62,11.81-27.59,24.27-26.84C155.6,228.89,170.58,242.47,169.63,258.05z"/>
	
		<ellipse transform="matrix(0.7485 -0.6631 0.6631 0.7485 24.6898 212.2444)" class="st1" cx="292.17" cy="73.57" rx="6.11" ry="23.19"/>
	<path class="st1" d="M231.67,325.48c-0.53,8.81,17.62,1.07,31.63-11.35c12.67-11.23,27.23-11.62,23.09-16.29
		c-2.11-2.39-14.06,2.57-29.2,10.14C242.04,315.54,231.86,322.3,231.67,325.48z"/>
	<path class="st1" d="M54.29,78.38c1.55,1.88,4.79-0.77,8.93-4.17s8.98-8.6,7.43-10.48c-1.55-1.88-4.05-0.25-8.2,3.15
		C58.32,70.28,52.74,76.5,54.29,78.38z"/>
</g>
</svg>
