<?xml version="1.0" encoding="utf-8"?>
<!-- Generator: Adobe Illustrator 25.4.3, SVG Export Plug-In . SVG Version: 6.00 Build 0)  -->
<svg version="1.1" id="Layer_1" xmlns="http://www.w3.org/2000/svg" xmlns:xlink="http://www.w3.org/1999/xlink" x="0px" y="0px"
	 viewBox="0 0 360 360" style="enable-background:new 0 0 360 360;" xml:space="preserve">
<style type="text/css">
	.st0{fill:#E3597A;}
	.st1{fill:#D41C5C;}
	.st2{fill:none;stroke:#676767;stroke-width:10;stroke-miterlimit:10;}
	.st3{fill:#CCCCCC;}
	.st4{fill:#676767;stroke:#676767;stroke-width:4;stroke-miterlimit:10;}
</style>
<g>
	<g>
		<path class="st0" d="M25.81,140.34c-0.24,68.9,48.17,128.69,116.99,132.05c53.98,2.64,44.91-9.46,53.98,2.64
			c4.26,5.68,13.16-2.43,22.79-9.72c10.26-7.76,25.48-10.47,23.13-13.6c-11.2-14.93,30.94-23.83,32.15-96.31
			c1.08-64.37-22.9-58.35-15.38-73.97c2.8-5.81-5.96-10.18-12.89-18c-10.39-11.73-8.5-16.87-14.44-12.6
			c-15.06,10.82-5.77-20.88-74.28-27.48C93.97,17.2,67.94,61.79,63.74,57.43c-5.18-5.38-4.68,0.95-9.53,5.46
			c-2.8,2.6-9.83,4.66-4.36,10.84C53.31,77.64,25.95,101.89,25.81,140.34z"/>
		<path class="st1" d="M199.45,141.35c-0.32,5.21,8.59,14.73,13.02,19.74c6.93,7.82,38.34-7.16,24.75-17.46
			c-4.16-3.16-8.7-14.68-18.31-10.58C209.17,137.2,199.76,136.13,199.45,141.35z"/>
		<path class="st1" d="M73.75,91.68c3.86,14.45,13.49,0.82,33.05,2c19.55,1.18,36.34,25.89,37.77,2.28
			c0.32-5.21-12.69-30.67-31.62-25.6C98.5,74.23,72.4,86.64,73.75,91.68z"/>
		<path class="st1" d="M144.86,218.59c-0.79,13.04-14.6,22.81-25.03,22.18c-10.43-0.63-30.07-21.37-17.46-24.75
			c14.45-3.86,9.88-23.09,20.31-22.46S145.65,205.56,144.86,218.59z"/>
		
			<ellipse transform="matrix(0.7485 -0.6631 0.6631 0.7485 19.65 180.2115)" class="st1" cx="247.41" cy="64.2" rx="5.11" ry="19.41"/>
		<path class="st1" d="M196.78,275.03c-0.45,7.37,14.75,0.89,26.48-9.5c10.61-9.4,22.79-9.72,19.33-13.63
			c-1.77-2-11.76,2.15-24.44,8.48C205.47,266.71,196.94,272.36,196.78,275.03z"/>
		<path class="st1" d="M48.33,68.23c1.29,1.58,4.01-0.64,7.48-3.49c3.47-2.85,7.52-7.19,6.22-8.77c-1.29-1.58-3.39-0.21-6.86,2.64
			S47.03,66.65,48.33,68.23z"/>
	</g>
	<g>
		<ellipse class="st2" cx="268.27" cy="211.02" rx="42.54" ry="49.3"/>
		<path class="st3" d="M323.27,331.86H215.21c-1.66,0-3.01-1.35-3.01-3.01V222.73c0-1.66,1.35-3.01,3.01-3.01h108.05
			c1.66,0,3.01,1.35,3.01,3.01v106.12C326.28,330.5,324.92,331.86,323.27,331.86z"/>
		<path class="st4" d="M279.43,264.19c0-5.34-4.66-9.67-10.41-9.67c-5.75,0-10.41,4.33-10.41,9.67c0,3.79,2.38,7.04,5.8,8.63v30.04
			h9.67v-30.27C277.25,270.93,279.43,267.81,279.43,264.19z"/>
	</g>
</g>
</svg>
