<?xml version="1.0" encoding="utf-8"?>
<!-- Generator: Adobe Illustrator 25.4.3, SVG Export Plug-In . SVG Version: 6.00 Build 0)  -->
<svg version="1.1" id="Layer_1" xmlns="http://www.w3.org/2000/svg" xmlns:xlink="http://www.w3.org/1999/xlink" x="0px" y="0px"
	 viewBox="0 0 360 360" style="enable-background:new 0 0 360 360;" xml:space="preserve">
<style type="text/css">
	.st0{enable-background:new    ;}
	.st1{clip-path:url(#SVGID_00000013170720831692207540000011205381552276113551_);enable-background:new    ;}
	.st2{fill:#858585;}
	.st3{fill:#8A8A8A;}
	.st4{fill:#808080;}
	.st5{fill:#EDEDED;}
	.st6{clip-path:url(#SVGID_00000038398476526992519000000010843548085388573367_);enable-background:new    ;}
</style>
<g>
	<g>
		<g class="st0">
			<g class="st0">
				<defs>
					<path id="SVGID_1_" class="st0" d="M24.52,21.68l12.91-3.49c-2.08,0.56-3.72,2.5-3.67,5.01l-12.91,3.49
						C20.8,24.18,22.44,22.25,24.52,21.68z"/>
				</defs>
				<clipPath id="SVGID_00000081607669980246737720000004418710734069731496_">
					<use xlink:href="#SVGID_1_"  style="overflow:visible;"/>
				</clipPath>
				<g style="clip-path:url(#SVGID_00000081607669980246737720000004418710734069731496_);enable-background:new    ;">
					<path class="st2" d="M33.75,23.21l-12.91,3.49c-0.04-2.35,1.39-4.2,3.28-4.89l12.91-3.49C35.14,19.01,33.71,20.85,33.75,23.21"
						/>
					<path class="st3" d="M37.03,18.32l-12.91,3.49c0.13-0.05,0.26-0.09,0.39-0.12l12.91-3.49C37.29,18.23,37.16,18.27,37.03,18.32"
						/>
				</g>
			</g>
			<g>
				<polygon class="st4" points="39.36,333.31 26.45,336.8 20.84,26.69 33.75,23.21 				"/>
			</g>
			<g>
				<path class="st5" d="M38.67,18.03c0.76,0,1.55,0.18,2.31,0.59l292.62,155.05c3.64,1.92,3.74,7.25,0.17,9.18l-287,155.05
					c-0.74,0.4-1.52,0.58-2.29,0.58c-2.63,0-5.05-2.17-5.11-5.17l-5.61-310.1C33.7,20.21,36.05,18.03,38.67,18.03z"/>
			</g>
			<g class="st0">
				<defs>
					<path id="SVGID_00000134234567886543593800000014420398367408050334_" class="st0" d="M45.71,338.32L32.8,341.8
						c-0.41,0.11-0.83,0.16-1.24,0.16c-2.63,0-5.05-2.17-5.11-5.17l12.91-3.49c0.05,3,2.48,5.17,5.11,5.17
						C44.88,338.48,45.3,338.43,45.71,338.32z"/>
				</defs>
				<clipPath id="SVGID_00000018952750925788746650000003718205134446795440_">
					<use xlink:href="#SVGID_00000134234567886543593800000014420398367408050334_"  style="overflow:visible;"/>
				</clipPath>
				<g style="clip-path:url(#SVGID_00000018952750925788746650000003718205134446795440_);enable-background:new    ;">
					<path class="st2" d="M45.71,338.32L32.8,341.8c-0.41,0.11-0.83,0.16-1.24,0.16c-2.63,0-5.05-2.17-5.11-5.17l12.91-3.49
						c0.05,3,2.48,5.17,5.11,5.17C44.88,338.48,45.3,338.43,45.71,338.32"/>
				</g>
			</g>
		</g>
	</g>
</g>
</svg>
