<?xml version="1.0" encoding="utf-8"?>
<!-- Generator: Adobe Illustrator 25.4.3, SVG Export Plug-In . SVG Version: 6.00 Build 0)  -->
<svg version="1.1" id="Layer_1" xmlns="http://www.w3.org/2000/svg" xmlns:xlink="http://www.w3.org/1999/xlink" x="0px" y="0px"
	 viewBox="0 0 360 360" style="enable-background:new 0 0 360 360;" xml:space="preserve">
<style type="text/css">
	.st0{fill:#932A8E;}
	.st1{fill:#693293;}
</style>
<g>
	<path class="st0" d="M15.99,161.82c-0.3,87.57,61.23,163.58,148.71,167.85c68.61,3.35,57.08-12.02,68.61,3.35
		c5.42,7.22,16.72-3.09,28.97-12.36c13.04-9.87,32.38-13.31,29.4-17.28c-14.23-18.98,39.32-30.3,40.87-122.42
		c1.37-81.83-29.11-74.17-19.55-94.02c3.56-7.39-7.58-12.95-16.39-22.88c-13.21-14.91-10.8-21.44-18.35-16.02
		c-19.14,13.75-7.33-26.54-94.42-34.92C102.63,5.3,69.53,61.99,64.2,56.44c-6.58-6.83-5.94,1.21-12.12,6.94
		c-3.56,3.31-12.5,5.92-5.54,13.78C50.94,82.13,16.16,112.95,15.99,161.82z"/>
	<path class="st1" d="M236.7,163.11c-0.4,6.63,10.91,18.73,16.55,25.09c8.81,9.94,48.73-9.1,31.46-22.19
		c-5.29-4.01-11.06-18.67-23.28-13.45C249.06,157.83,237.1,156.48,236.7,163.11z"/>
	<path class="st1" d="M76.92,99.98c4.91,18.37,17.15,1.04,42.01,2.54c24.86,1.5,46.19,32.91,48.01,2.9
		c0.4-6.63-16.13-38.98-40.19-32.55C108.38,77.79,75.2,93.56,76.92,99.98z"/>
	<path class="st1" d="M167.32,261.3c-1,16.57-18.56,28.99-31.82,28.19c-13.26-0.8-38.23-27.17-22.19-31.46
		c18.37-4.91,12.56-29.35,25.82-28.55C152.38,230.28,168.32,244.73,167.32,261.3z"/>
	
		<ellipse transform="matrix(0.7485 -0.6631 0.6631 0.7485 31.7291 213.7488)" class="st1" cx="297.67" cy="65.04" rx="6.5" ry="24.67"/>
	<path class="st1" d="M233.31,333.03c-0.57,9.37,18.74,1.13,33.65-12.07c13.48-11.94,28.97-12.36,24.57-17.33
		c-2.25-2.54-14.95,2.74-31.07,10.78C244.35,322.46,233.51,329.64,233.31,333.03z"/>
	<path class="st1" d="M44.61,70.16c1.65,2,5.09-0.82,9.5-4.44s9.55-9.14,7.91-11.15c-1.65-2-4.31-0.27-8.72,3.35
		C48.89,61.55,42.96,68.16,44.61,70.16z"/>
</g>
</svg>
