<?xml version="1.0" encoding="utf-8"?>
<!-- Generator: Adobe Illustrator 25.4.3, SVG Export Plug-In . SVG Version: 6.00 Build 0)  -->
<svg version="1.1" id="Layer_1" xmlns="http://www.w3.org/2000/svg" xmlns:xlink="http://www.w3.org/1999/xlink" x="0px" y="0px"
	 viewBox="0 0 360 360" style="enable-background:new 0 0 360 360;" xml:space="preserve">
<style type="text/css">
	.st0{fill:#932A8E;}
	.st1{fill:#693293;}
	.st2{fill:none;stroke:#676767;stroke-width:10;stroke-miterlimit:10;}
	.st3{fill:#CCCCCC;}
	.st4{fill:#676767;stroke:#676767;stroke-width:4;stroke-miterlimit:10;}
</style>
<g>
	<g>
		<path class="st0" d="M28.71,138.66C28.47,208.85,77.79,269.78,147.9,273.2c55,2.69,45.75-9.63,55,2.69
			c4.34,5.79,13.4-2.48,23.22-9.91c10.45-7.91,25.96-10.67,23.57-13.85c-11.41-15.21,31.52-24.28,32.76-98.12
			c1.1-65.59-23.34-59.45-15.67-75.36c2.85-5.92-6.08-10.38-13.14-18.34c-10.59-11.95-8.66-17.19-14.71-12.84
			c-15.34,11.02-5.88-21.27-75.68-27.99c-65.1-6.27-91.62,39.17-95.9,34.72c-5.27-5.48-4.76,0.97-9.71,5.56
			c-2.85,2.65-10.02,4.74-4.44,11.04C56.72,74.78,28.84,99.48,28.71,138.66z"/>
		<path class="st1" d="M205.61,139.69c-0.32,5.31,8.75,15.01,13.27,20.11c7.06,7.97,39.06-7.29,25.21-17.79
			c-4.24-3.21-8.87-14.96-18.66-10.78C215.52,135.46,205.93,134.37,205.61,139.69z"/>
		<path class="st1" d="M77.55,89.09c3.94,14.72,13.75,0.83,33.67,2.04s37.02,26.38,38.48,2.33c0.32-5.31-12.93-31.24-32.22-26.09
			C102.76,71.3,76.17,83.95,77.55,89.09z"/>
		<path class="st1" d="M150,218.39c-0.8,13.28-14.88,23.24-25.5,22.6s-30.64-21.78-17.79-25.21c14.72-3.94,10.07-23.53,20.69-22.89
			C138.03,193.53,150.8,205.11,150,218.39z"/>
		
			<ellipse transform="matrix(0.7485 -0.6631 0.6631 0.7485 23.4937 184.1168)" class="st1" cx="254.49" cy="61.08" rx="5.21" ry="19.78"/>
		<path class="st1" d="M202.9,275.89c-0.45,7.51,15.02,0.91,26.98-9.68c10.81-9.57,23.22-9.91,19.69-13.89
			c-1.8-2.03-11.99,2.19-24.9,8.64C211.75,267.41,203.06,273.17,202.9,275.89z"/>
		<path class="st1" d="M51.64,65.19c1.32,1.61,4.08-0.66,7.62-3.56s7.66-7.33,6.34-8.94c-1.32-1.61-3.46-0.22-6.99,2.69
			S50.33,63.58,51.64,65.19z"/>
	</g>
	<g>
		<ellipse class="st2" cx="271.27" cy="219.78" rx="43.34" ry="50.23"/>
		<path class="st3" d="M327.35,342.9h-110.2c-1.66,0-3.01-1.35-3.01-3.01V231.65c0-1.66,1.35-3.01,3.01-3.01h110.2
			c1.66,0,3.01,1.35,3.01,3.01v108.23C330.37,341.54,329.01,342.9,327.35,342.9z"/>
		<path class="st4" d="M282.63,273.95c0-5.44-4.75-9.85-10.61-9.85c-5.86,0-10.61,4.41-10.61,9.85c0,3.87,2.42,7.18,5.91,8.79v30.61
			h9.85v-30.84C280.42,280.82,282.63,277.64,282.63,273.95z"/>
	</g>
</g>
</svg>
