<?xml version="1.0" encoding="utf-8"?>
<!-- Generator: Adobe Illustrator 25.4.3, SVG Export Plug-In . SVG Version: 6.00 Build 0)  -->
<svg version="1.1" id="Layer_1" xmlns="http://www.w3.org/2000/svg" xmlns:xlink="http://www.w3.org/1999/xlink" x="0px" y="0px"
	 viewBox="0 0 360 360" style="enable-background:new 0 0 360 360;" xml:space="preserve">
<style type="text/css">
	.st0{fill:#CCCCCC;}
</style>
<path class="st0" d="M341.02,208.77l4.02-36.15l-35.4-22.06c-0.78-3.23-1.67-6.42-2.68-9.55L329,110.33l-17.16-29.71l-40.79,4.07
	c-3.12-2.89-6.37-5.64-9.76-8.22l-2.53-40.89l-31.61-11.75l-26.41,27.04c-6.37-0.94-12.89-1.44-19.53-1.44
	c-1.32,0-2.63,0.02-3.94,0.06l-27.1-30.61l-32.14,10.19l-4.33,38.9c-5.67,3.38-11.06,7.16-16.14,11.32l-1.19-1.87L53.16,71.3
	L33.3,102.05l23.03,36.35c-1.08,3.14-2.05,6.33-2.9,9.57L16.1,164.83l0,34.31l37.64,17c0.82,3.03,1.75,6.02,2.77,8.95l-20.16,31.1
	l18.99,31.08l41.44-4.22c2.72,2.27,5.54,4.43,8.44,6.47l-0.22,32.8l32.98,16.24l32.57-25.42c3.52,0.28,7.07,0.43,10.66,0.43
	c1.17,0,2.34-0.02,3.5-0.05l22.81,28.72l34.59-8.23l4.8-37.5c3.05-1.88,9.5-6.37,12.38-8.49l37.84,8.99l23.09-28.41l-17.06-36.29
	c1.61-3.85,3.04-7.8,4.28-11.83L341.02,208.77z M114.14,178.59c0-38.75,31.41-70.16,70.16-70.16s70.16,31.41,70.16,70.16
	c0,38.75-31.41,70.16-70.16,70.16S114.14,217.34,114.14,178.59z"/>
</svg>
