<?xml version="1.0" encoding="utf-8"?>
<!-- Generator: Adobe Illustrator 25.4.3, SVG Export Plug-In . SVG Version: 6.00 Build 0)  -->
<svg version="1.1" id="Layer_1" xmlns="http://www.w3.org/2000/svg" xmlns:xlink="http://www.w3.org/1999/xlink" x="0px" y="0px"
	 viewBox="0 0 360 360" style="enable-background:new 0 0 360 360;" xml:space="preserve">
<style type="text/css">
	.st0{fill:#CCCCCC;}
	.st1{fill:#989898;}
</style>
<g>
	<g>
		<path class="st0" d="M333.57,151.26L186.76,24.22c-3.21-2.78-7.98-2.78-11.19,0L28.77,151.26c-5.99,5.18-2.32,15.02,5.6,15.02
			h19.69v147.2c0,10.47,8.57,19.04,19.04,19.04h216.17c10.47,0,19.04-8.57,19.04-19.04v-147.2h19.69
			C335.89,166.27,339.56,156.44,333.57,151.26z"/>
		<path class="st1" d="M183.96,20.67l161.05,138.88c2.65,2.29,1.03,6.64-2.47,6.64l-322.09,0c-3.5,0-5.12-4.35-2.47-6.64
			L179.03,20.67C180.45,19.45,182.55,19.45,183.96,20.67z"/>
	</g>
	<g>
		<g>
			<path class="st1" d="M116.98,212.64h-8.43c-0.05-0.23-0.09-0.41-0.11-0.53c-0.18-1.34-0.67-2.18-1.49-2.51
				c-0.82-0.33-2.79-0.5-5.93-0.5c-4.49,0-6.74,1.13-6.74,3.39c0,1.54,0.4,2.45,1.19,2.75s3.47,0.53,8.04,0.7
				c6.15,0.23,10.15,0.87,12.01,1.9c1.86,1.03,2.79,3.15,2.79,6.34c0,3.41-1.24,5.77-3.71,7.08c-2.47,1.31-6.94,13.43-13.34,13.43
				c-6.15,0-10.32-12.05-12.57-13.24c-2.26-1.19-3.39-3.41-3.39-6.66v-0.7h8.96c-0.13,0.39-0.2,0.7-0.23,0.93
				c-0.35,2.47,2.11,3.71,7.38,3.71c5.45,0,8.17-1.23,8.17-3.68c0-2.36-1.71-3.53-5.12-3.53c-7.7,0-12.78-0.56-15.23-1.69
				c-2.45-1.13-3.67-3.48-3.67-7.04c0-3.19,1.12-5.35,3.35-6.48c2.23-1.13,6.52-1.69,12.87-1.69c6,0,10.03,0.55,12.1,1.64
				C115.95,207.34,116.98,209.47,116.98,212.64z"/>
			<path class="st1" d="M125.08,204.96h8.77l-0.34,4.15l0.19,0.03c2.08-3.02,5.96-4.53,11.63-4.53c5.24,0,8.85,1.01,10.82,3.02
				c1.97,2.02,2.96,5.69,2.96,11.03c0,5.57-0.98,9.39-2.94,11.45c-1.96,2.06-6.26,16.08-11.55,16.08
				c-5.65,0-10.23-13.53-11.96-16.45h1.5l-0.08,6.15l-1.49,23c-0.61,3.29-5.31,3.3-5.95,0.02l-1.56-23.02V204.96z M142.05,209.9
				c-3.29,0-5.43,0.57-6.44,1.72c-1,1.15-1.51,3.58-1.51,7.3c0,3.62,0.54,6.03,1.62,7.21c1.08,1.19,3.28,1.78,6.59,1.78
				c3.36,0,5.55-0.56,6.55-1.69c1-1.13,1.51-3.55,1.51-7.27c0-3.82-0.51-6.28-1.52-7.39C147.83,210.45,145.57,209.9,142.05,209.9z"
				/>
			<path class="st1" d="M175.26,213.05h-8.81c0-3.35,1-5.59,3.01-6.72c2.01-1.13,5.99-1.69,11.93-1.69c6.47,0,10.85,0.69,13.14,2.07
				c2.28,1.38,3.43,4.02,3.43,7.92v18.26l-1.5,11.74c-0.4,3.13-4.91,3.17-5.37,0.05l-1.75-11.79l0.41-3.83l1.23,0.68
				c-1.66,2.79-7.46,16.45-13.46,16.45c-8.71,0-12.54-15.85-12.54-21.6c0-5.8,4.45-8.7,13.36-8.7c5.95,0,9.56,1.06,10.84,3.18h0.15
				v-4.53c0-2.18-0.49-3.63-1.47-4.34c-0.98-0.71-2.99-1.07-6.02-1.07C177.45,209.14,175.26,210.44,175.26,213.05z M181.02,220.38
				c-4.87,0-7.3,1.3-7.3,3.91c0,1.81,0.5,3,1.51,3.56c1,0.57,3.11,0.85,6.32,0.85c5.24,0,7.87-1.37,7.87-4.12
				C189.41,221.78,186.61,220.38,181.02,220.38z"/>
			<path class="st1" d="M229.47,222.22h8.58v0.96l-0.53,4.24c-1.05,3.86-5.9,18.76-15.14,18.76c-6.78,0-11.58-13.93-13.81-15.83
				c-2.23-1.9-3.35-5.72-3.35-11.46c0-5.61,1.12-9.39,3.35-11.33c2.23-1.95,6.57-2.92,13.03-2.92c6.22,0,10.44,0.71,12.65,2.12
				c2.21,1.41,3.31,4.09,3.31,8.05h-8.55c0-3.25-2.42-4.88-7.27-4.88c-3.44,0-5.6,0.52-6.47,1.55c-0.88,1.03-1.32,3.56-1.32,7.59
				c0,3.89,0.48,6.34,1.45,7.35c0.97,1,3.33,1.5,7.1,1.5c2.96,0,4.86-0.35,5.7-1.04C229.04,226.19,229.47,224.64,229.47,222.22z"/>
			<path class="st1" d="M267.56,223.94h8.66v1.08c0,5.45-5.91,21.16-16.45,21.16c-7.15,0-11.19-13.92-13.4-15.81
				c-2.21-1.89-3.31-5.89-3.31-12c0-5.43,1.15-9.08,3.46-10.95c2.31-1.87,6.81-2.8,13.51-2.8c6.42,0,10.73,0.91,12.91,2.73
				c2.18,1.82,3.28,5.4,3.28,10.73v2.04h-24.36c-0.05,0.62-0.08,1.03-0.08,1.23c0,2.75,0.55,4.58,1.64,5.49
				c1.09,0.92,3.27,1.37,6.53,1.37c3.16,0,5.22-0.27,6.17-0.8C267.08,226.87,267.56,225.72,267.56,223.94z M267.64,216.03
				l-0.04-1.11c0-2.22-0.5-3.66-1.49-4.32c-0.99-0.66-3.14-0.99-6.46-0.99c-3.21,0-5.3,0.4-6.27,1.2c-0.97,0.8-1.45,2.54-1.45,5.23
				H267.64z"/>
		</g>
		<g>
			<path class="st1" d="M148.35,272.18h-6.18c-0.04-0.17-0.06-0.29-0.08-0.38c-0.13-0.96-0.49-1.56-1.09-1.8
				c-0.6-0.24-2.05-0.35-4.34-0.35c-3.29,0-4.94,0.81-4.94,2.42c0,1.1,0.29,1.75,0.87,1.96c0.58,0.21,2.54,0.38,5.89,0.5
				c4.51,0.17,7.44,0.62,8.8,1.36c1.36,0.74,2.04,2.25,2.04,4.53c0,2.44-0.91,4.12-2.72,5.06c-1.81,0.94-5.06,1.41-9.75,1.41
				c-4.51,0-7.59-0.42-9.24-1.27c-1.66-0.85-2.48-2.44-2.48-4.76v-0.5h6.57c-0.09,0.28-0.15,0.5-0.17,0.67
				c-0.26,1.77,1.54,2.65,5.41,2.65c3.99,0,5.99-0.88,5.99-2.63c0-1.68-1.25-2.53-3.75-2.53c-5.65,0-9.37-0.4-11.16-1.21
				c-1.79-0.81-2.69-2.48-2.69-5.03c0-2.28,0.82-3.83,2.46-4.64c1.64-0.81,4.78-1.21,9.43-1.21c4.4,0,7.35,0.39,8.87,1.17
				C147.59,268.39,148.35,269.91,148.35,272.18z"/>
			<path class="st1" d="M160.6,258.15v11.84l0.14,0.02c1.18-2.37,3.88-3.55,8.11-3.55c6.16,0,9.24,2.21,9.24,6.62v13.57h-6.32
				v-12.26v-0.65c0-2.34-1.57-3.51-4.72-3.51c-4.3,0-6.46,1.69-6.46,5.07v11.34h-6.32v-28.5H160.6z"/>
			<path class="st1" d="M195.88,266.46c5.09,0,8.43,0.62,10.01,1.85c1.58,1.23,2.37,3.83,2.37,7.8c0,4.43-0.77,7.33-2.32,8.71
				c-1.54,1.38-4.8,2.07-9.77,2.07c-5.39,0-8.88-0.64-10.47-1.92c-1.59-1.28-2.39-4.1-2.39-8.46c0-4.19,0.78-6.91,2.34-8.16
				C187.24,267.08,190.64,266.46,195.88,266.46z M195.83,270.24c-2.63,0-4.3,0.36-5.02,1.08c-0.72,0.72-1.08,2.39-1.08,5.02
				c0,3.01,0.34,4.89,1.02,5.64c0.68,0.75,2.38,1.13,5.1,1.13c2.63,0,4.29-0.4,4.98-1.19c0.69-0.79,1.03-2.7,1.03-5.72
				c0-2.55-0.36-4.18-1.08-4.89C200.08,270.59,198.42,270.24,195.83,270.24z"/>
			<path class="st1" d="M213.54,266.69h6.43l-0.25,2.96l0.14,0.02c1.53-2.16,4.37-3.24,8.52-3.24c3.84,0,6.49,0.72,7.93,2.16
				c1.44,1.44,2.17,4.07,2.17,7.88c0,3.98-0.72,6.71-2.15,8.18c-1.43,1.48-4.09,2.21-7.97,2.21c-4.14,0-6.84-1.04-8.11-3.13h-0.11
				v11.46h-6.59V266.69z M225.98,270.22c-2.41,0-3.98,0.41-4.72,1.23c-0.74,0.82-1.1,2.56-1.1,5.22c0,2.59,0.4,4.31,1.19,5.16
				c0.79,0.85,2.4,1.27,4.83,1.27c2.46,0,4.06-0.4,4.8-1.21c0.74-0.81,1.1-2.54,1.1-5.2c0-2.73-0.37-4.49-1.12-5.28
				C230.21,270.61,228.55,270.22,225.98,270.22z"/>
		</g>
	</g>
</g>
</svg>
