<?xml version="1.0" encoding="utf-8"?>
<!-- Generator: Adobe Illustrator 25.4.3, SVG Export Plug-In . SVG Version: 6.00 Build 0)  -->
<svg version="1.1" id="Layer_1" xmlns="http://www.w3.org/2000/svg" xmlns:xlink="http://www.w3.org/1999/xlink" x="0px" y="0px"
	 viewBox="0 0 2436 1125" style="enable-background:new 0 0 2436 1125;" xml:space="preserve">
<style type="text/css">
	.st0{enable-background:new    ;}
	.st1{clip-path:url(#SVGID_00000042726665953025288300000016253930458715459459_);enable-background:new    ;}
	.st2{fill:#858585;}
	.st3{clip-path:url(#SVGID_00000098943647607639787040000011461117914324881077_);enable-background:new    ;}
	.st4{fill:#8F8F8F;}
	.st5{fill:#8A8A8A;}
	.st6{clip-path:url(#SVGID_00000067204758199301878190000013931412148866632869_);enable-background:new    ;}
	.st7{clip-path:url(#SVGID_00000066507841186387467400000014872778234782114980_);enable-background:new    ;}
	.st8{clip-path:url(#SVGID_00000155141601235630558470000000534164891169107116_);enable-background:new    ;}
	.st9{fill:#808080;}
	.st10{fill:#EAEAEA;}
	.st11{fill:#8E8E8E;}
	.st12{clip-path:url(#SVGID_00000115499543521253984520000006614490935319739011_);enable-background:new    ;}
	.st13{clip-path:url(#SVGID_00000075161602940216559280000016313769947991318179_);enable-background:new    ;}
	.st14{clip-path:url(#SVGID_00000130623103101337473390000001980246748742840969_);enable-background:new    ;}
	.st15{clip-path:url(#SVGID_00000041990191102244647650000001815588063681024389_);enable-background:new    ;}
	.st16{clip-path:url(#SVGID_00000124867758968266363940000017210528251654202002_);enable-background:new    ;}
	.st17{clip-path:url(#SVGID_00000160872860046655625730000016991241291001280650_);enable-background:new    ;}
	.st18{clip-path:url(#SVGID_00000042695962629345703550000004212233373957073053_);enable-background:new    ;}
	.st19{clip-path:url(#SVGID_00000127038113804412153140000007078637505006553484_);enable-background:new    ;}
	.st20{clip-path:url(#SVGID_00000042015026668499505600000005072087759707429508_);enable-background:new    ;}
	.st21{clip-path:url(#SVGID_00000083788663285518773510000016479883064413040307_);enable-background:new    ;}
	.st22{clip-path:url(#SVGID_00000174568363035769593670000015166295756392154552_);enable-background:new    ;}
	.st23{clip-path:url(#SVGID_00000009556216444040938850000005157598771817925265_);enable-background:new    ;}
	.st24{clip-path:url(#SVGID_00000023253804437103628870000002287489537333763763_);enable-background:new    ;}
	.st25{clip-path:url(#SVGID_00000027580968085163558510000013763847578258944947_);enable-background:new    ;}
	.st26{clip-path:url(#SVGID_00000084500745040319958390000005181071412177405106_);enable-background:new    ;}
	.st27{clip-path:url(#SVGID_00000054230574523612749120000003665859414895479468_);enable-background:new    ;}
	.st28{clip-path:url(#SVGID_00000010279143107597675700000011586091764192127662_);enable-background:new    ;}
	.st29{clip-path:url(#SVGID_00000062175903918880015220000011922454650593985471_);enable-background:new    ;}
	.st30{clip-path:url(#SVGID_00000006679385793196524330000006969063439523337360_);enable-background:new    ;}
	.st31{clip-path:url(#SVGID_00000056399532495801073190000013520106432705323953_);enable-background:new    ;}
	.st32{clip-path:url(#SVGID_00000117636938862611761060000001030420783096721047_);enable-background:new    ;}
	.st33{clip-path:url(#SVGID_00000047038674807977744720000002553833365630606516_);enable-background:new    ;}
	.st34{clip-path:url(#SVGID_00000101104086924985529460000008593508105015242413_);enable-background:new    ;}
	.st35{clip-path:url(#SVGID_00000116929734472640983660000017191028998002070160_);enable-background:new    ;}
	.st36{clip-path:url(#SVGID_00000181065130476712911250000000651543322155834287_);enable-background:new    ;}
	.st37{clip-path:url(#SVGID_00000090264301521534543250000018232569434872640677_);enable-background:new    ;}
	.st38{fill:#838383;}
	.st39{clip-path:url(#SVGID_00000136407650788128476170000014484863804274607234_);enable-background:new    ;}
	.st40{clip-path:url(#SVGID_00000105386788006940751750000009516048580942482061_);enable-background:new    ;}
	.st41{clip-path:url(#SVGID_00000150819118061582177360000013448576116462989191_);enable-background:new    ;}
	.st42{clip-path:url(#SVGID_00000176733136546815745640000016547225203524995760_);enable-background:new    ;}
	.st43{clip-path:url(#SVGID_00000068656430028584669030000007005539990129939370_);enable-background:new    ;}
	.st44{clip-path:url(#SVGID_00000005230803014061627500000009150008979436098238_);enable-background:new    ;}
	.st45{clip-path:url(#SVGID_00000025430709209750951110000013235983123358990997_);enable-background:new    ;}
	.st46{clip-path:url(#SVGID_00000064319789944510781360000002068331549885863809_);enable-background:new    ;}
	.st47{clip-path:url(#SVGID_00000108300288763477388110000007740849271251070353_);enable-background:new    ;}
	.st48{clip-path:url(#SVGID_00000078748082069191699450000001019666178506253711_);enable-background:new    ;}
	.st49{clip-path:url(#SVGID_00000014615019657717522930000011076027548967649949_);enable-background:new    ;}
	.st50{clip-path:url(#SVGID_00000136405530787930492670000014351600627612780206_);enable-background:new    ;}
	.st51{clip-path:url(#SVGID_00000168838695117587122170000006000463249181026989_);enable-background:new    ;}
	.st52{clip-path:url(#SVGID_00000165222586298522391520000010085155411513570690_);enable-background:new    ;}
	.st53{clip-path:url(#SVGID_00000145053359877523462420000000835274952197780145_);enable-background:new    ;}
	.st54{clip-path:url(#SVGID_00000116950609047517844070000010119270222776994982_);enable-background:new    ;}
	.st55{clip-path:url(#SVGID_00000078042417283754157590000005463902521082015623_);enable-background:new    ;}
	.st56{clip-path:url(#SVGID_00000108280176528579274050000005535577167968959128_);enable-background:new    ;}
</style>
<g>
	<g>
		<g class="st0">
			<g class="st0">
				<defs>
					<path id="SVGID_1_" class="st0" d="M230.27,487.91l-12.94,0c-0.25-1.21-0.43-2.12-0.56-2.72h12.94
						C229.83,485.79,230.02,486.7,230.27,487.91z"/>
				</defs>
				<clipPath id="SVGID_00000155106103444134715200000002800561983130713746_">
					<use xlink:href="#SVGID_1_"  style="overflow:visible;"/>
				</clipPath>
				<g style="clip-path:url(#SVGID_00000155106103444134715200000002800561983130713746_);enable-background:new    ;">
					<path class="st2" d="M230.27,487.91h-12.94c-0.25-1.21-0.43-2.11-0.56-2.72h12.94C229.83,485.79,230.02,486.7,230.27,487.91"/>
				</g>
			</g>
			<g class="st0">
				<defs>
					<path id="SVGID_00000043456511897561556750000001216585714657051539_" class="st0" d="M195.24,570.96H182.3
						c26.66,0,40-6.33,40-18.99c0-12.16-8.35-18.24-25.06-18.24h12.94c16.71,0,25.06,6.08,25.06,18.24
						C235.24,564.63,221.9,570.96,195.24,570.96z"/>
				</defs>
				<clipPath id="SVGID_00000023981508272531830310000003963582061117289404_">
					<use xlink:href="#SVGID_00000043456511897561556750000001216585714657051539_"  style="overflow:visible;"/>
				</clipPath>
				<g style="clip-path:url(#SVGID_00000023981508272531830310000003963582061117289404_);enable-background:new    ;">
					<path class="st4" d="M195.24,570.96H182.3c9.57,0,17.43-0.82,23.57-2.45h12.94C212.67,570.14,204.82,570.96,195.24,570.96"/>
					<path class="st5" d="M218.81,568.51h-12.94c3.67-0.98,6.73-2.24,9.17-3.8h12.94C225.53,566.27,222.48,567.54,218.81,568.51"/>
					<path class="st2" d="M227.97,564.71h-12.94c4.84-3.1,7.27-7.34,7.27-12.74c0-12.16-8.35-18.24-25.06-18.24h12.94
						c16.71,0,25.06,6.08,25.06,18.24C235.24,557.37,232.82,561.61,227.97,564.71"/>
				</g>
			</g>
			<g class="st0">
				<defs>
					<path id="SVGID_00000030467363802827334240000016920666696273171099_" class="st0" d="M229.71,485.19h-12.94
						c-0.86-6.93-3.29-11.25-7.28-12.96c-4-1.71-13.67-2.57-29.04-2.57h12.94c15.36,0,25.04,0.86,29.04,2.57
						C226.43,473.94,228.85,478.26,229.71,485.19z"/>
				</defs>
				<clipPath id="SVGID_00000169545219491991833360000004423296689562852785_">
					<use xlink:href="#SVGID_00000030467363802827334240000016920666696273171099_"  style="overflow:visible;"/>
				</clipPath>
				<g style="clip-path:url(#SVGID_00000169545219491991833360000004423296689562852785_);enable-background:new    ;">
					<path class="st2" d="M229.71,485.19h-12.94c-0.86-6.93-3.29-11.25-7.28-12.96c-4-1.71-13.67-2.57-29.04-2.57h12.94
						c15.36,0,25.04,0.86,29.04,2.57C226.43,473.94,228.85,478.26,229.71,485.19"/>
				</g>
			</g>
			<g class="st0">
				<defs>
					<path id="SVGID_00000109711732387315575800000004705497602134631345_" class="st0" d="M210.18,533.73h-12.94
						c-37.73,0-62.58-2.91-74.56-8.74c-11.99-5.82-17.98-17.94-17.98-36.33c0-16.48,5.47-27.63,16.4-33.46
						c10.94-5.82,31.96-8.74,63.04-8.74h12.94c-31.09,0-52.11,2.92-63.04,8.74c-10.94,5.83-16.4,16.98-16.4,33.46
						c0,18.4,5.99,30.51,17.98,36.33C147.59,530.82,172.45,533.73,210.18,533.73z"/>
				</defs>
				<clipPath id="SVGID_00000168837860916116963860000015853562864319049135_">
					<use xlink:href="#SVGID_00000109711732387315575800000004705497602134631345_"  style="overflow:visible;"/>
				</clipPath>
				<g style="clip-path:url(#SVGID_00000168837860916116963860000015853562864319049135_);enable-background:new    ;">
					<path class="st2" d="M210.18,533.73h-12.94c-37.73,0-62.58-2.91-74.56-8.74c-11.99-5.82-17.98-17.94-17.98-36.33
						c0-15.39,4.77-26.13,14.31-32.23h12.94c-9.54,6.1-14.31,16.85-14.31,32.23c0,18.4,5.99,30.51,17.98,36.33
						C147.59,530.82,172.45,533.73,210.18,533.73"/>
					<path class="st5" d="M131.94,456.42H119c0.68-0.43,1.38-0.84,2.1-1.23c2.85-1.52,6.38-2.83,10.59-3.96h12.94
						c-4.21,1.12-7.74,2.44-10.59,3.96C133.32,455.58,132.62,455.99,131.94,456.42"/>
					<path class="st4" d="M144.63,451.24h-12.94c11.97-3.19,29.46-4.78,52.45-4.78h12.94C174.09,446.45,156.6,448.05,144.63,451.24"
						/>
				</g>
			</g>
			<g class="st0">
				<defs>
					<path id="SVGID_00000021811137756396840320000004015170561240032432_" class="st0" d="M198.33,665.32h-12.94
						c-30.11,0-48.14-48.22-65.39-80.33c-5.98-11.15-16.59-17.59-16.59-34.37h12.94c0,16.79,10.61,23.22,16.59,34.37
						C150.18,617.09,168.21,665.32,198.33,665.32z"/>
				</defs>
				<clipPath id="SVGID_00000011737123808770648570000013921844016793409206_">
					<use xlink:href="#SVGID_00000021811137756396840320000004015170561240032432_"  style="overflow:visible;"/>
				</clipPath>
				<g style="clip-path:url(#SVGID_00000011737123808770648570000013921844016793409206_);enable-background:new    ;">
					<path class="st2" d="M198.33,665.32h-12.94c-30.11,0-48.14-48.22-65.39-80.33c-5.98-11.15-16.59-17.59-16.59-34.37h12.94
						c0,16.79,10.61,23.22,16.59,34.37C150.18,617.09,168.21,665.32,198.33,665.32"/>
				</g>
			</g>
			<g>
				<rect x="103.41" y="546.99" class="st9" width="12.94" height="3.62"/>
			</g>
			<g>
				<path class="st10" d="M197.08,446.45c29.37,0,49.13,2.81,59.26,8.44c10.14,5.62,15.21,16.63,15.21,33.01h-41.29
					c-0.25-1.21-0.43-2.11-0.56-2.72c-0.86-6.93-3.29-11.25-7.28-12.96c-4-1.71-13.67-2.57-29.04-2.57
					c-21.99,0-32.99,5.83-32.99,17.49c0,7.94,1.93,12.66,5.81,14.17c3.87,1.51,16.99,2.72,39.35,3.62c30.11,1.21,49.7,4.47,58.8,9.8
					c9.09,5.33,13.64,16.23,13.64,32.71c0,17.59-8.12,10.99-18.16,36.55c-5.08,12.93-30.19,81.32-61.52,81.32
					c-30.11,0-48.14-48.22-65.39-80.33c-5.98-11.15-16.59-17.59-16.59-34.37v-3.62h43.87c-0.61,2.02-0.98,3.62-1.1,4.82
					c-1.72,12.76,10.33,19.14,36.13,19.14c26.66,0,40-6.33,40-18.99c0-12.16-8.35-18.24-25.06-18.24c-37.73,0-62.58-2.91-74.56-8.74
					c-11.99-5.82-17.98-17.94-17.98-36.33c0-16.48,5.47-27.63,16.4-33.46C144.98,449.37,166,446.45,197.08,446.45z"/>
			</g>
			<g>
				<polygon class="st11" points="116.35,546.99 103.41,546.99 147.28,546.99 160.22,546.99 				"/>
			</g>
		</g>
		<g class="st0">
			<g class="st0">
				<defs>
					<path id="SVGID_00000059283763966123853620000004987931516338567312_" class="st0" d="M395.61,566.74h-12.94
						c16.47,0,27.16-2.91,32.07-8.74h12.94C422.77,563.83,412.08,566.74,395.61,566.74z"/>
				</defs>
				<clipPath id="SVGID_00000056392131587217824080000001232690613356486028_">
					<use xlink:href="#SVGID_00000059283763966123853620000004987931516338567312_"  style="overflow:visible;"/>
				</clipPath>
				<g style="clip-path:url(#SVGID_00000056392131587217824080000001232690613356486028_);enable-background:new    ;">
					<path class="st4" d="M395.61,566.74h-12.94c8.11,0,14.83-0.71,20.13-2.12h12.94C410.44,566.03,403.73,566.74,395.61,566.74"/>
					<path class="st5" d="M415.75,564.62h-12.94c3.28-0.87,6.02-2.01,8.23-3.43h12.94C421.77,562.6,419.03,563.75,415.75,564.62"/>
					<path class="st2" d="M423.98,561.19h-12.94c1.47-0.94,2.71-2.01,3.71-3.19h12.94C426.69,559.18,425.45,560.25,423.98,561.19"/>
				</g>
			</g>
			<g class="st0">
				<defs>
					<path id="SVGID_00000083786066970447766610000010527007882113641119_" class="st0" d="M427.68,558h-12.94
						c4.91-5.82,7.37-18.34,7.37-37.53c0-19.7-2.49-32.42-7.46-38.14c-4.98-5.72-16.07-8.59-33.28-8.59h12.94
						c17.2,0,28.3,2.87,33.28,8.59c4.97,5.72,7.46,18.44,7.46,38.14C435.06,539.66,432.6,552.18,427.68,558z"/>
				</defs>
				<clipPath id="SVGID_00000030466428318241796450000006780017199182160021_">
					<use xlink:href="#SVGID_00000083786066970447766610000010527007882113641119_"  style="overflow:visible;"/>
				</clipPath>
				<g style="clip-path:url(#SVGID_00000030466428318241796450000006780017199182160021_);enable-background:new    ;">
					<path class="st2" d="M427.68,558h-12.94c4.91-5.82,7.37-18.34,7.37-37.53c0-19.7-2.49-32.42-7.46-38.14
						c-4.98-5.72-16.07-8.59-33.28-8.59h12.94c17.2,0,28.3,2.87,33.28,8.59c4.97,5.72,7.46,18.44,7.46,38.14
						C435.06,539.66,432.6,552.18,427.68,558"/>
				</g>
			</g>
			<g class="st0">
				<defs>
					<path id="SVGID_00000121988337337146730880000009203923806138927757_" class="st0" d="M412.38,656.7h-12.94
						c-24.01,0-46.52-48.93-57.59-71.71l12.94,0C365.85,607.77,388.37,656.7,412.38,656.7z"/>
				</defs>
				<clipPath id="SVGID_00000136407244854910664290000013845794056697516435_">
					<use xlink:href="#SVGID_00000121988337337146730880000009203923806138927757_"  style="overflow:visible;"/>
				</clipPath>
				<g style="clip-path:url(#SVGID_00000136407244854910664290000013845794056697516435_);enable-background:new    ;">
					<path class="st2" d="M412.38,656.7h-12.94c-24.01,0-46.52-48.93-57.59-71.71h12.94C365.85,607.77,388.37,656.7,412.38,656.7"/>
				</g>
			</g>
			<g class="st0">
				<defs>
					<path id="SVGID_00000018937269787813758040000003200124645116046013_" class="st0" d="M353.4,469.82h-12.94
						c10.2-15.58,29.18-23.36,56.96-23.36h12.94C382.58,446.45,363.6,454.24,353.4,469.82z"/>
				</defs>
				<clipPath id="SVGID_00000062895169421656441670000011095782538059513778_">
					<use xlink:href="#SVGID_00000018937269787813758040000003200124645116046013_"  style="overflow:visible;"/>
				</clipPath>
				<g style="clip-path:url(#SVGID_00000062895169421656441670000011095782538059513778_);enable-background:new    ;">
					<path class="st2" d="M353.4,469.82h-12.94c3.44-5.26,7.88-9.63,13.32-13.11h12.94C361.28,460.19,356.84,464.56,353.4,469.82"/>
					<path class="st5" d="M366.72,456.71h-12.94c4.8-3.07,10.38-5.45,16.73-7.14h12.94C377.1,451.26,371.52,453.64,366.72,456.71"/>
					<path class="st4" d="M383.45,449.57h-12.94c7.8-2.08,16.77-3.11,26.91-3.11h12.94C400.22,446.45,391.25,447.49,383.45,449.57"
						/>
				</g>
			</g>
			<g class="st0">
				<defs>
					<path id="SVGID_00000146474370653259889010000013117698635855420815_" class="st0" d="M333.17,722.03h-12.94
						c-7.4,0-14.8-4.66-17.47-13.95h12.94C318.37,717.37,325.77,722.03,333.17,722.03z"/>
				</defs>
				<clipPath id="SVGID_00000062161795211853756080000010474905462215306649_">
					<use xlink:href="#SVGID_00000146474370653259889010000013117698635855420815_"  style="overflow:visible;"/>
				</clipPath>
				<g style="clip-path:url(#SVGID_00000062161795211853756080000010474905462215306649_);enable-background:new    ;">
					<path class="st2" d="M333.17,722.03h-12.94c-7.4,0-14.8-4.66-17.47-13.95h12.94C318.37,717.37,325.77,722.03,333.17,722.03"/>
				</g>
			</g>
			<g>
				<polygon class="st11" points="311.18,448.26 298.24,448.26 341.2,448.26 354.14,448.26 				"/>
			</g>
			<g>
				<polygon class="st9" points="315.71,708.07 302.76,708.07 298.24,448.26 311.18,448.26 				"/>
			</g>
			<g>
				<path class="st10" d="M463.35,462.05c9.65,10.4,14.47,29.38,14.47,56.91c0,28.75-8.2,51.53-13.4,65.66
					c-5.31,14.42-26.12,72.08-52.05,72.08c-24.01,0-46.52-48.93-57.59-71.71l-4.17,123.18c-2.71,9.24-10.07,13.86-17.44,13.86
					c-7.4,0-14.8-4.66-17.47-13.95l-4.52-259.81l42.95,0l-1.66,21.4l0.92,0.15c10.2-15.58,29.18-23.36,56.96-23.36
					C436.04,446.45,453.7,451.66,463.35,462.05z M427.68,558c4.91-5.82,7.37-18.34,7.37-37.53c0-19.7-2.49-32.42-7.46-38.14
					c-4.98-5.72-16.07-8.59-33.28-8.59c-16.1,0-26.6,2.97-31.52,8.9c-4.91,5.92-7.37,18.49-7.37,37.68c0,18.69,2.64,31.1,7.93,37.23
					c5.29,6.13,16.04,9.19,32.26,9.19C412.08,566.74,422.77,563.83,427.68,558"/>
			</g>
		</g>
		<g class="st0">
			<g class="st0">
				<defs>
					<path id="SVGID_00000106861998351116554960000005496505150033427335_" class="st0" d="M645.49,657.14h-12.94
						c-8.5,0-16.99-5.74-18.89-17.12h12.94C628.49,651.4,636.99,657.14,645.49,657.14z"/>
				</defs>
				<clipPath id="SVGID_00000029740428718641141360000012889933941507306137_">
					<use xlink:href="#SVGID_00000106861998351116554960000005496505150033427335_"  style="overflow:visible;"/>
				</clipPath>
				<g style="clip-path:url(#SVGID_00000029740428718641141360000012889933941507306137_);enable-background:new    ;">
					<path class="st2" d="M645.49,657.14h-12.94c-8.5,0-16.99-5.74-18.89-17.12h12.94C628.49,651.4,636.99,657.14,645.49,657.14"/>
				</g>
			</g>
			<g>
				<polygon class="st9" points="626.6,640.02 613.66,640.02 612.9,592.37 625.84,592.37 				"/>
			</g>
			<g>
				<polygon class="st9" points="625.84,592.37 612.9,592.37 614.93,572.62 627.87,572.62 				"/>
			</g>
			<g>
				<rect x="612.9" y="497.7" class="st9" width="12.94" height="23.37"/>
			</g>
			<g>
				<polygon class="st11" points="625.1,521.07 612.16,521.07 612.9,521.07 625.84,521.07 				"/>
			</g>
			<g class="st0">
				<defs>
					<path id="SVGID_00000048482105237482064560000016975296768863049089_" class="st0" d="M625.84,497.7H612.9
						c0-11.25-2.39-18.71-7.19-22.38c-4.79-3.66-14.62-5.5-29.49-5.5h12.94c14.87,0,24.7,1.84,29.49,5.5
						C623.45,478.99,625.84,486.45,625.84,497.7z"/>
				</defs>
				<clipPath id="SVGID_00000114039757049373499910000018191504138168411798_">
					<use xlink:href="#SVGID_00000048482105237482064560000016975296768863049089_"  style="overflow:visible;"/>
				</clipPath>
				<g style="clip-path:url(#SVGID_00000114039757049373499910000018191504138168411798_);enable-background:new    ;">
					<path class="st2" d="M625.84,497.7H612.9c0-11.25-2.39-18.71-7.19-22.38c-4.79-3.66-14.62-5.5-29.49-5.5h12.94
						c14.87,0,24.7,1.84,29.49,5.5C623.45,478.99,625.84,486.45,625.84,497.7"/>
				</g>
			</g>
			<g class="st0">
				<defs>
					<path id="SVGID_00000003097287447205381520000018259961998660192185_" class="st0" d="M587.68,570.82l-12.94,0
						c25.68,0,38.53-7.09,38.53-21.26c0-14.47-13.71-21.71-41.11-21.71l12.94,0c27.4,0,41.11,7.24,41.11,21.71
						C626.21,563.72,613.37,570.82,587.68,570.82z"/>
				</defs>
				<clipPath id="SVGID_00000129183905906094679430000004303085639230123442_">
					<use xlink:href="#SVGID_00000003097287447205381520000018259961998660192185_"  style="overflow:visible;"/>
				</clipPath>
				<g style="clip-path:url(#SVGID_00000129183905906094679430000004303085639230123442_);enable-background:new    ;">
					<path class="st4" d="M587.68,570.82h-12.94c8.34,0,15.33-0.75,20.96-2.24h12.94C603.01,570.07,596.03,570.82,587.68,570.82"/>
					<path class="st5" d="M608.65,568.57H595.7c3.68-0.98,6.78-2.27,9.3-3.88h12.94C615.42,566.3,612.32,567.6,608.65,568.57"/>
					<path class="st2" d="M617.94,564.69H605c5.51-3.52,8.27-8.57,8.27-15.13c0-14.47-13.71-21.71-41.11-21.71l12.94,0
						c27.4,0,41.11,7.24,41.11,21.71C626.21,556.12,623.46,561.16,617.94,564.69"/>
				</g>
			</g>
			<g class="st0">
				<defs>
					<path id="SVGID_00000000180816620742957010000015993663557144861831_" class="st0" d="M513.77,490.01h-12.94
						c0-17.28,4.92-28.84,14.75-34.67c9.82-5.83,29.31-8.74,58.43-8.74l12.94,0c-29.12,0-48.6,2.91-58.43,8.74
						C518.69,461.18,513.77,472.73,513.77,490.01z"/>
				</defs>
				<clipPath id="SVGID_00000109742123508868807830000008986728916080167052_">
					<use xlink:href="#SVGID_00000000180816620742957010000015993663557144861831_"  style="overflow:visible;"/>
				</clipPath>
				<g style="clip-path:url(#SVGID_00000109742123508868807830000008986728916080167052_);enable-background:new    ;">
					<path class="st2" d="M513.77,490.01h-12.94c0-16.83,4.67-28.23,14-34.2h12.94C518.43,461.78,513.77,473.18,513.77,490.01"/>
					<path class="st5" d="M527.76,455.81h-12.94c0.25-0.16,0.5-0.31,0.75-0.46c2.88-1.71,6.58-3.16,11.11-4.37h12.94
						c-4.53,1.21-8.23,2.66-11.11,4.37C528.26,455.5,528.01,455.65,527.76,455.81"/>
					<path class="st4" d="M539.63,450.98h-12.94c10.95-2.91,26.72-4.37,47.32-4.37h12.94C566.35,446.61,550.57,448.06,539.63,450.98
						"/>
				</g>
			</g>
			<g class="st0">
				<defs>
					<path id="SVGID_00000179619246476272102000000000911586919102452394_" class="st0" d="M571.12,656.7h-12.94
						c-42.65,0-64.55-77.5-64.55-107.14c0-29.94,21.81-44.92,65.44-44.92h12.94c-43.63,0-65.44,14.98-65.44,44.92
						C506.58,579.2,528.47,656.7,571.12,656.7z"/>
				</defs>
				<clipPath id="SVGID_00000059298913293935734590000004572846222204329387_">
					<use xlink:href="#SVGID_00000179619246476272102000000000911586919102452394_"  style="overflow:visible;"/>
				</clipPath>
				<g style="clip-path:url(#SVGID_00000059298913293935734590000004572846222204329387_);enable-background:new    ;">
					<path class="st2" d="M571.12,656.7h-12.94c-42.65,0-64.55-77.5-64.55-107.14c0-15.5,5.84-26.99,17.53-34.47h12.94
						c-11.69,7.48-17.53,18.97-17.53,34.47C506.58,579.2,528.47,656.7,571.12,656.7"/>
					<path class="st5" d="M524.11,515.09h-12.94c4.59-2.94,10.09-5.26,16.49-6.96h12.94C534.2,509.83,528.71,512.15,524.11,515.09"
						/>
					<path class="st4" d="M540.6,508.13h-12.94c8.77-2.33,19.25-3.49,31.42-3.49h12.94C559.85,504.64,549.38,505.8,540.6,508.13"/>
				</g>
			</g>
			<g>
				<path class="st10" d="M651.28,457.31c11.19,7.14,16.78,20.75,16.78,40.85v94.21l-3.83,48.26
					c-2.16,11.04-10.45,16.51-18.74,16.51c-8.5,0-16.99-5.74-18.89-17.12l-0.76-47.65l2.03-19.75l-2.1,19.06
					c-8.11,14.37-25.28,65.02-54.65,65.02c-42.65,0-64.55-77.5-64.55-107.14c0-29.94,21.81-44.92,65.44-44.92
					c29.12,0,46.82,5.48,53.08,16.43h0.74V497.7c0-11.25-2.39-18.71-7.19-22.38c-4.79-3.66-14.62-5.5-29.49-5.5
					c-21.51,0-32.26,6.73-32.26,20.2h-43.14c0-17.28,4.92-28.84,14.75-34.67c9.82-5.83,29.31-8.74,58.43-8.74
					C618.65,446.61,640.1,450.17,651.28,457.31z M587.68,570.82c25.68,0,38.53-7.09,38.53-21.26c0-14.47-13.71-21.71-41.11-21.71
					c-23.84,0-35.76,6.73-35.76,20.2c0,9.34,2.45,15.47,7.37,18.39C561.63,569.36,571.96,570.82,587.68,570.82"/>
			</g>
		</g>
		<g class="st0">
			<g>
				<polygon class="st11" points="822.34,537.34 809.4,537.34 851.43,537.34 864.37,537.34 				"/>
			</g>
			<g class="st0">
				<defs>
					<path id="SVGID_00000005964141851197174090000008327591133752799900_" class="st0" d="M788.24,566.74H775.3
						c14.5,0,23.81-1.78,27.92-5.35c4.12-3.56,6.18-11.58,6.18-24.05h12.94c0,12.47-2.06,20.48-6.18,24.05
						C812.05,564.96,802.74,566.74,788.24,566.74z"/>
				</defs>
				<clipPath id="SVGID_00000003825849941439094730000011291689645048309172_">
					<use xlink:href="#SVGID_00000005964141851197174090000008327591133752799900_"  style="overflow:visible;"/>
				</clipPath>
				<g style="clip-path:url(#SVGID_00000003825849941439094730000011291689645048309172_);enable-background:new    ;">
					<path class="st4" d="M788.24,566.74H775.3c8.84,0,15.76-0.66,20.74-1.99h12.94C804,566.08,797.08,566.74,788.24,566.74"/>
					<path class="st5" d="M808.98,564.75h-12.94c2.44-0.65,4.41-1.46,5.92-2.42h12.94C813.39,563.29,811.42,564.1,808.98,564.75"/>
					<path class="st2" d="M814.9,562.33h-12.94c0.46-0.3,0.88-0.61,1.26-0.93c4.12-3.56,6.18-11.58,6.18-24.05h12.94
						c0,12.47-2.06,20.48-6.18,24.05C815.79,561.72,815.37,562.03,814.9,562.33"/>
				</g>
			</g>
			<g class="st0">
				<defs>
					<path id="SVGID_00000064345208504846487070000007719867506769567914_" class="st0" d="M820.13,499.06l-12.94,0
						c0-16.78-11.86-25.17-35.57-25.17h12.94C808.27,473.89,820.13,482.28,820.13,499.06z"/>
				</defs>
				<clipPath id="SVGID_00000125591302378592899750000005909244091810387861_">
					<use xlink:href="#SVGID_00000064345208504846487070000007719867506769567914_"  style="overflow:visible;"/>
				</clipPath>
				<g style="clip-path:url(#SVGID_00000125591302378592899750000005909244091810387861_);enable-background:new    ;">
					<path class="st2" d="M820.13,499.06h-12.94c0-16.78-11.86-25.17-35.57-25.17h12.94C808.27,473.89,820.13,482.28,820.13,499.06"
						/>
				</g>
			</g>
			<g class="st0">
				<defs>
					<path id="SVGID_00000104684305937852091140000016610355789730908292_" class="st0" d="M783.22,666.59h-12.94
						c-33.18,0-57.25-60.77-68.96-83.39c-6.95-13.42-10.62-33.4-10.62-63.04c0-28.94,5.47-48.44,16.4-58.49
						c10.94-10.04,32.2-15.07,63.78-15.07h12.94c-31.58,0-52.85,5.02-63.78,15.07c-10.94,10.05-16.4,29.55-16.4,58.49
						c0,29.65,3.68,49.63,10.62,63.04C725.96,605.83,750.03,666.59,783.22,666.59z"/>
				</defs>
				<clipPath id="SVGID_00000069378560089543272420000015476160541216944011_">
					<use xlink:href="#SVGID_00000104684305937852091140000016610355789730908292_"  style="overflow:visible;"/>
				</clipPath>
				<g style="clip-path:url(#SVGID_00000069378560089543272420000015476160541216944011_);enable-background:new    ;">
					<path class="st2" d="M783.22,666.59h-12.94c-33.18,0-57.25-60.77-68.96-83.39c-6.95-13.42-10.62-33.4-10.62-63.04
						c0-28.94,5.47-48.44,16.4-58.49c1.43-1.32,3.05-2.55,4.84-3.69h12.94c-1.79,1.14-3.4,2.38-4.84,3.69
						c-10.94,10.05-16.4,29.55-16.4,58.49c0,29.65,3.68,49.63,10.62,63.04C725.96,605.83,750.03,666.59,783.22,666.59"/>
					<path class="st5" d="M724.87,457.98h-12.94c4.47-2.86,10.05-5.18,16.74-6.96h12.94C734.92,452.8,729.34,455.12,724.87,457.98"
						/>
					<path class="st4" d="M741.61,451.02h-12.94c11.05-2.94,25.12-4.41,42.21-4.41h12.94C766.72,446.61,752.65,448.08,741.61,451.02
						"/>
				</g>
			</g>
			<g>
				<path class="st10" d="M783.82,446.61c30.48,0,51.12,3.64,61.93,10.93c10.81,7.28,16.22,21.13,16.22,41.53h-41.84
					c0-16.78-11.86-25.17-35.57-25.17c-16.84,0-27.41,2.66-31.7,7.99c-4.3,5.33-6.45,18.39-6.45,39.2c0,20.1,2.36,32.73,7.09,37.91
					c4.73,5.18,16.31,7.76,34.75,7.76c14.5,0,23.81-1.78,27.92-5.35c4.12-3.56,6.18-11.58,6.18-24.05h42.02v4.98l-2.58,21.86
					c-5.16,19.9-33.35,102.41-78.57,102.41c-33.18,0-57.25-60.77-68.96-83.39c-6.95-13.42-10.62-33.4-10.62-63.04
					c0-28.94,5.47-48.44,16.4-58.49C730.97,451.63,752.23,446.61,783.82,446.61z"/>
			</g>
		</g>
		<g class="st0">
			<g>
				<polygon class="st9" points="1009.25,505.39 996.31,505.39 996.13,499.66 1009.07,499.66 				"/>
			</g>
			<g>
				<polygon class="st11" points="1008.89,546.25 995.94,546.25 1038.34,546.25 1051.28,546.25 				"/>
			</g>
			<g class="st0">
				<defs>
					<path id="SVGID_00000011011485123310240740000016701163910463372182_" class="st0" d="M971.65,568.25l-12.94,0
						c15.48,0,25.56-1.38,30.23-4.15c4.67-2.76,7.01-8.71,7.01-17.86h12.94c0,9.14-2.34,15.09-7.01,17.86
						C997.21,566.87,987.14,568.25,971.65,568.25z"/>
				</defs>
				<clipPath id="SVGID_00000103240954206450242160000013716012965551786121_">
					<use xlink:href="#SVGID_00000011011485123310240740000016701163910463372182_"  style="overflow:visible;"/>
				</clipPath>
				<g style="clip-path:url(#SVGID_00000103240954206450242160000013716012965551786121_);enable-background:new    ;">
					<path class="st4" d="M971.65,568.25h-12.94c11.3,0,19.72-0.73,25.26-2.21h12.94C991.37,567.52,982.95,568.25,971.65,568.25"/>
					<path class="st5" d="M996.91,566.04h-12.94c2.05-0.55,3.71-1.19,4.97-1.94c0.11-0.07,0.22-0.13,0.33-0.2h12.94
						c-0.11,0.07-0.22,0.14-0.33,0.2C1000.62,564.85,998.96,565.5,996.91,566.04"/>
					<path class="st2" d="M1002.21,563.9h-12.94c4.45-2.84,6.68-8.73,6.68-17.65h12.94C1008.89,555.17,1006.66,561.06,1002.21,563.9
						"/>
				</g>
			</g>
			<g class="st0">
				<defs>
					<path id="SVGID_00000181774533969573190990000011998809875144099247_" class="st0" d="M1009.07,499.66h-12.94
						c0-11.46-2.43-18.89-7.28-22.31c-4.85-3.41-15.39-5.12-31.61-5.12h12.94c16.22,0,26.76,1.71,31.61,5.12
						C1006.64,480.77,1009.07,488.2,1009.07,499.66z"/>
				</defs>
				<clipPath id="SVGID_00000012437006377447944210000006077830264732484755_">
					<use xlink:href="#SVGID_00000181774533969573190990000011998809875144099247_"  style="overflow:visible;"/>
				</clipPath>
				<g style="clip-path:url(#SVGID_00000012437006377447944210000006077830264732484755_);enable-background:new    ;">
					<path class="st2" d="M1009.07,499.66h-12.94c0-11.46-2.43-18.89-7.28-22.31c-4.85-3.41-15.39-5.12-31.61-5.12h12.94
						c16.22,0,26.76,1.71,31.61,5.12C1006.64,480.77,1009.07,488.2,1009.07,499.66"/>
				</g>
			</g>
			<g>
				<polygon class="st11" points="932.38,505.39 919.44,505.39 996.31,505.39 1009.25,505.39 				"/>
			</g>
			<g>
				<path class="st10" d="M1051.28,526.49H932.02c-0.25,3.22-0.37,5.33-0.37,6.34c0,14.17,2.68,23.62,8.02,28.34
					c5.35,4.73,16,7.08,31.98,7.08c15.48,0,25.56-1.38,30.23-4.15c4.67-2.76,7.01-8.71,7.01-17.86h42.4v5.57
					c0,28.14-32.98,114.78-84.59,114.78c-35.03,0-65.94-69.69-70.27-86.21c-3.84-14.68-7.54-31.37-7.54-62.93
					c0-28.04,5.65-46.88,16.96-56.53c11.3-9.65,33.37-14.47,66.17-14.47c31.46,0,52.53,4.7,63.23,14.09
					c10.69,9.4,16.04,27.86,16.04,55.39V526.49z M939.49,478.41c-4.74,4.12-7.1,13.11-7.1,26.98h76.87l-0.18-5.73
					c0-11.46-2.43-18.89-7.28-22.31c-4.85-3.41-15.39-5.12-31.61-5.12C954.44,472.23,944.22,474.29,939.49,478.41"/>
			</g>
			<g class="st0">
				<defs>
					<path id="SVGID_00000056389705463165399610000000981970147401499046_" class="st0" d="M966.69,666.59h-12.94
						c-35.03,0-65.94-69.69-70.27-86.21c-3.84-14.68-7.54-31.37-7.54-62.93c0-28.04,5.65-46.88,16.96-56.53
						c11.3-9.65,33.37-14.47,66.17-14.47l12.94,0c-32.81,0-54.87,4.82-66.17,14.47c-11.31,9.65-16.96,28.48-16.96,56.53
						c0,31.55,3.69,48.25,7.54,62.93C900.75,596.91,931.66,666.59,966.69,666.59z"/>
				</defs>
				<clipPath id="SVGID_00000083792531962867171170000006627797734944452249_">
					<use xlink:href="#SVGID_00000056389705463165399610000000981970147401499046_"  style="overflow:visible;"/>
				</clipPath>
				<g style="clip-path:url(#SVGID_00000083792531962867171170000006627797734944452249_);enable-background:new    ;">
					<path class="st2" d="M966.69,666.59h-12.94c-35.03,0-65.94-69.69-70.27-86.21c-3.84-14.68-7.54-31.37-7.54-62.93
						c0-28.04,5.65-46.88,16.96-56.53c1.17-1,2.45-1.94,3.85-2.84h12.94c-1.4,0.89-2.68,1.84-3.85,2.84
						c-11.31,9.65-16.96,28.48-16.96,56.53c0,31.55,3.69,48.25,7.54,62.93C900.75,596.91,931.66,666.59,966.69,666.59"/>
					<path class="st5" d="M909.69,458.09h-12.94c4.44-2.84,10.05-5.16,16.82-6.97h12.94C919.74,452.93,914.13,455.25,909.69,458.09"
						/>
					<path class="st4" d="M926.51,451.12h-12.94c11.7-3.11,26.87-4.67,45.51-4.67h12.94C953.38,446.45,938.21,448.01,926.51,451.12"
						/>
				</g>
			</g>
		</g>
		<g class="st0">
			<g>
				<polygon class="st11" points="1291.1,448.26 1278.16,448.26 1320.37,448.26 1333.31,448.26 				"/>
			</g>
			<g>
				<polygon class="st9" points="1273.95,515.04 1261.01,515.04 1278.16,448.26 1291.1,448.26 				"/>
			</g>
			<g class="st0">
				<defs>
					<path id="SVGID_00000019659530368928591600000009133395716311148464_" class="st0" d="M1267.5,541.87h-12.94
						c2.09-9.24,4.24-18.19,6.45-26.83h12.94C1271.75,523.68,1269.59,532.63,1267.5,541.87z"/>
				</defs>
				<clipPath id="SVGID_00000109718008245259145020000004941642606258650776_">
					<use xlink:href="#SVGID_00000019659530368928591600000009133395716311148464_"  style="overflow:visible;"/>
				</clipPath>
				<g style="clip-path:url(#SVGID_00000109718008245259145020000004941642606258650776_);enable-background:new    ;">
					<path class="st2" d="M1267.5,541.87h-12.94c2.09-9.24,4.24-18.19,6.45-26.83h12.94
						C1271.75,523.68,1269.59,532.63,1267.5,541.87"/>
				</g>
			</g>
			<g>
				<polygon class="st9" points="1264.56,555.29 1251.62,555.29 1254.56,541.87 1267.5,541.87 				"/>
			</g>
			<g>
				<polygon class="st9" points="1261.42,568.7 1248.48,568.7 1251.62,555.29 1264.56,555.29 				"/>
			</g>
			<g>
				<polygon class="st11" points="1260.5,568.7 1247.56,568.7 1248.48,568.7 1261.42,568.7 				"/>
			</g>
			<g class="st0">
				<defs>
					<path id="SVGID_00000033363129314222919820000007667893839813431699_" class="st0" d="M1265.46,731.54h-12.94
						c-10.23,0-20.47-6.57-23.75-19.76h12.94C1244.99,724.97,1255.23,731.54,1265.46,731.54z"/>
				</defs>
				<clipPath id="SVGID_00000177454348569317357190000012088554052532388769_">
					<use xlink:href="#SVGID_00000033363129314222919820000007667893839813431699_"  style="overflow:visible;"/>
				</clipPath>
				<g style="clip-path:url(#SVGID_00000177454348569317357190000012088554052532388769_);enable-background:new    ;">
					<path class="st2" d="M1265.46,731.54h-12.94c-10.23,0-20.47-6.57-23.75-19.76h12.94
						C1244.99,724.97,1255.23,731.54,1265.46,731.54"/>
				</g>
			</g>
			<g>
				<polygon class="st9" points="1241.71,711.78 1228.77,711.78 1220.08,609.58 1233.02,609.58 				"/>
			</g>
			<g class="st0">
				<defs>
					<path id="SVGID_00000007408547774440590770000000153399311254869636_" class="st0" d="M1233.02,609.58h-12.94
						c-0.97-11.45-2.98-22.76-6.01-33.78h12.94C1230.04,586.82,1232.04,598.13,1233.02,609.58z"/>
				</defs>
				<clipPath id="SVGID_00000147915932184829616220000008770187520274176920_">
					<use xlink:href="#SVGID_00000007408547774440590770000000153399311254869636_"  style="overflow:visible;"/>
				</clipPath>
				<g style="clip-path:url(#SVGID_00000147915932184829616220000008770187520274176920_);enable-background:new    ;">
					<path class="st2" d="M1233.02,609.58h-12.94c-0.97-11.45-2.98-22.76-6.01-33.78h12.94
						C1230.04,586.82,1232.04,598.13,1233.02,609.58"/>
				</g>
			</g>
			<g>
				<polygon class="st9" points="1227.01,575.8 1214.07,575.8 1200.92,527.85 1213.87,527.85 				"/>
			</g>
			<g class="st0">
				<defs>
					<path id="SVGID_00000164508966635893479880000001431681378689228218_" class="st0" d="M1213.87,527.85h-12.94
						c-3.08-11.15-5.35-19.65-6.82-25.47h12.94C1208.52,508.2,1210.79,516.7,1213.87,527.85z"/>
				</defs>
				<clipPath id="SVGID_00000183951494499951352810000014127004553934046899_">
					<use xlink:href="#SVGID_00000164508966635893479880000001431681378689228218_"  style="overflow:visible;"/>
				</clipPath>
				<g style="clip-path:url(#SVGID_00000183951494499951352810000014127004553934046899_);enable-background:new    ;">
					<path class="st2" d="M1213.87,527.85h-12.94c-3.08-11.15-5.35-19.65-6.82-25.47h12.94
						C1208.52,508.2,1210.79,516.7,1213.87,527.85"/>
				</g>
			</g>
			<g>
				<polygon class="st9" points="1207.04,502.38 1194.1,502.38 1190.96,489.72 1203.9,489.72 				"/>
			</g>
			<g>
				<polygon class="st9" points="1203.9,489.72 1190.96,489.72 1187.83,477.05 1200.77,477.05 				"/>
			</g>
			<g>
				<polygon class="st11" points="1172.94,448.26 1160,448.26 1213.83,448.26 1226.77,448.26 				"/>
			</g>
			<g>
				<polygon class="st9" points="1153.77,515.19 1140.83,515.19 1160,448.26 1172.94,448.26 				"/>
			</g>
			<g class="st0">
				<defs>
					<path id="SVGID_00000100366255330817666070000000113332501135222441_" class="st0" d="M1146.21,541.87h-12.94
						c1.84-6.73,4.36-15.62,7.55-26.68h12.94C1150.57,526.25,1148.06,535.14,1146.21,541.87z"/>
				</defs>
				<clipPath id="SVGID_00000121265496305302801190000002604826961896595110_">
					<use xlink:href="#SVGID_00000100366255330817666070000000113332501135222441_"  style="overflow:visible;"/>
				</clipPath>
				<g style="clip-path:url(#SVGID_00000121265496305302801190000002604826961896595110_);enable-background:new    ;">
					<path class="st2" d="M1146.21,541.87h-12.94c1.84-6.73,4.36-15.62,7.55-26.68h12.94
						C1150.57,526.25,1148.06,535.14,1146.21,541.87"/>
				</g>
			</g>
			<g>
				<polygon class="st9" points="1142.71,555.29 1129.77,555.29 1133.27,541.87 1146.21,541.87 				"/>
			</g>
			<g>
				<polygon class="st9" points="1138.29,568.7 1125.34,568.7 1129.77,555.29 1142.71,555.29 				"/>
			</g>
			<g class="st0">
				<defs>
					<path id="SVGID_00000119810322184847134260000012450217611072560063_" class="st0" d="M1137.97,663.84h-12.94
						c-10.34,0-20.69-6.24-25.02-18.95h12.94C1117.28,657.6,1127.63,663.84,1137.97,663.84z"/>
				</defs>
				<clipPath id="SVGID_00000090272757348709596520000009361389166962490518_">
					<use xlink:href="#SVGID_00000119810322184847134260000012450217611072560063_"  style="overflow:visible;"/>
				</clipPath>
				<g style="clip-path:url(#SVGID_00000090272757348709596520000009361389166962490518_);enable-background:new    ;">
					<path class="st2" d="M1137.97,663.84h-12.94c-10.34,0-20.69-6.24-25.02-18.95h12.94
						C1117.28,657.6,1127.63,663.84,1137.97,663.84"/>
				</g>
			</g>
			<g>
				<polygon class="st9" points="1112.95,644.89 1100.01,644.89 1095.02,608.94 1107.96,608.94 				"/>
			</g>
			<g class="st0">
				<defs>
					<path id="SVGID_00000149354811347312653930000012485523968192877444_" class="st0" d="M1107.96,608.94h-12.94
						c-1.54-11.03-3.76-21.94-6.69-32.64h12.94C1104.2,587,1106.42,597.91,1107.96,608.94z"/>
				</defs>
				<clipPath id="SVGID_00000130626098640063353840000002562123438109578882_">
					<use xlink:href="#SVGID_00000149354811347312653930000012485523968192877444_"  style="overflow:visible;"/>
				</clipPath>
				<g style="clip-path:url(#SVGID_00000130626098640063353840000002562123438109578882_);enable-background:new    ;">
					<path class="st2" d="M1107.96,608.94h-12.94c-1.54-11.03-3.76-21.94-6.69-32.64h12.94
						C1104.2,587,1106.42,597.91,1107.96,608.94"/>
				</g>
			</g>
			<g>
				<polygon class="st11" points="1066.39,448.26 1053.45,448.26 1096.04,448.26 1108.98,448.26 				"/>
			</g>
			<g>
				<polygon class="st9" points="1101.28,576.3 1088.34,576.3 1053.45,448.26 1066.39,448.26 				"/>
			</g>
			<g>
				<path class="st10" d="M1333.31,448.26l-32.58,119.01c-4.56,16.67-7.21,33.89-7.88,51.26l-3.57,92.99
					c-3.18,13.33-13.5,20.02-23.82,20.02c-10.23,0-20.47-6.57-23.75-19.76l-8.69-102.2c-0.97-11.45-2.98-22.76-6.01-33.78
					l-13.14-47.95c-3.08-11.15-5.35-19.65-6.82-25.47l-3.14-12.66l-3.13-12.66h-1.29l-3.14,12.66l-3.13,12.81
					c-1.36,5.63-3.56,14.08-6.64,25.33l-13.04,47.55c-3.09,11.29-5.26,22.86-6.47,34.58l-3.4,32.95
					c-3.71,13.85-14.7,20.91-25.7,20.91c-10.34,0-20.69-6.24-25.02-18.95l-4.99-35.95c-1.54-11.03-3.76-21.94-6.69-32.64
					l-34.89-128.03h42.59l16.95,66.78c2.1,8.33,4.18,17.28,6.27,26.83l2.95,13.42l3.14,13.41l4.42-13.41l3.5-13.42
					c1.84-6.73,4.36-15.62,7.55-26.68l19.17-66.92h53.83l19.17,66.92c3.56,12.56,6.09,21.46,7.55,26.68l3.5,13.42l3.5,13.41h0.92
					l3.14-13.41l2.95-13.42c2.09-9.24,4.24-18.19,6.45-26.83l17.14-66.78H1333.31z"/>
			</g>
		</g>
		<g class="st0">
			<g class="st0">
				<defs>
					<path id="SVGID_00000026152141115919434230000013639597760752987029_" class="st0" d="M1572.86,666.54h-12.94
						c-8.66,0-17.31-5.83-19.24-17.49h12.94C1555.55,660.71,1564.21,666.54,1572.86,666.54z"/>
				</defs>
				<clipPath id="SVGID_00000080179308327154214860000009944187510725621394_">
					<use xlink:href="#SVGID_00000026152141115919434230000013639597760752987029_"  style="overflow:visible;"/>
				</clipPath>
				<g style="clip-path:url(#SVGID_00000080179308327154214860000009944187510725621394_);enable-background:new    ;">
					<path class="st2" d="M1572.86,666.54h-12.94c-8.66,0-17.31-5.83-19.24-17.49h12.94
						C1555.55,660.71,1564.21,666.54,1572.86,666.54"/>
				</g>
			</g>
			<g>
				<polygon class="st9" points="1553.63,649.05 1540.69,649.05 1538.8,606.5 1551.74,606.5 				"/>
			</g>
			<g>
				<path class="st10" d="M1593.96,386.77V606.5l-1.84,42.48c-1.89,11.7-10.57,17.56-19.25,17.56c-8.66,0-17.31-5.83-19.24-17.49
					l-1.89-42.55V386.77H1593.96z"/>
			</g>
			<g>
				<rect x="1538.8" y="386.77" class="st9" width="12.94" height="219.73"/>
			</g>
			<g>
				<polygon class="st11" points="1551.74,386.77 1538.8,386.77 1581.01,386.77 1593.96,386.77 				"/>
			</g>
		</g>
		<g class="st0">
			<g class="st0">
				<defs>
					<path id="SVGID_00000165949860255467565640000003515559018281177782_" class="st0" d="M1775.86,732.95h-12.94
						c-8.64,0-17.26-5.74-19.22-17.5h12.94C1758.59,727.21,1767.22,732.95,1775.86,732.95z"/>
				</defs>
				<clipPath id="SVGID_00000174600987436119669000000005988388571492514215_">
					<use xlink:href="#SVGID_00000165949860255467565640000003515559018281177782_"  style="overflow:visible;"/>
				</clipPath>
				<g style="clip-path:url(#SVGID_00000174600987436119669000000005988388571492514215_);enable-background:new    ;">
					<path class="st2" d="M1775.86,732.95h-12.94c-8.64,0-17.26-5.74-19.22-17.5h12.94
						C1758.59,727.21,1767.22,732.95,1775.86,732.95"/>
				</g>
			</g>
			<g>
				<polygon class="st9" points="1756.63,715.45 1743.69,715.45 1737.02,642.97 1749.96,642.97 				"/>
			</g>
			<g>
				<polygon class="st11" points="1736.07,448.26 1723.13,448.26 1772.16,448.26 1785.1,448.26 				"/>
			</g>
			<g class="st0">
				<defs>
					<path id="SVGID_00000030468917381953999770000002657022808174941573_" class="st0" d="M1749.96,642.97h-12.94
						c-3.03-32.76-16.19-63.44-37.34-87.03h12.94C1733.77,579.53,1746.93,610.21,1749.96,642.97z"/>
				</defs>
				<clipPath id="SVGID_00000025416999364551625860000007544148037595341738_">
					<use xlink:href="#SVGID_00000030468917381953999770000002657022808174941573_"  style="overflow:visible;"/>
				</clipPath>
				<g style="clip-path:url(#SVGID_00000025416999364551625860000007544148037595341738_);enable-background:new    ;">
					<path class="st2" d="M1749.96,642.97h-12.94c-3.03-32.76-16.19-63.44-37.34-87.03h12.94
						C1733.77,579.53,1746.93,610.21,1749.96,642.97"/>
				</g>
			</g>
			<g>
				<polygon class="st38" points="1688.52,504.33 1675.58,504.33 1723.13,448.26 1736.07,448.26 				"/>
			</g>
			<g>
				<polygon class="st9" points="1712.62,555.94 1699.68,555.94 1675.02,528.45 1687.97,528.45 				"/>
			</g>
			<g>
				<polygon class="st11" points="1677.64,504.33 1664.7,504.33 1675.58,504.33 1688.52,504.33 				"/>
			</g>
			<g class="st0">
				<defs>
					<path id="SVGID_00000020365796405056829250000003198510968487288963_" class="st0" d="M1656.7,666.28h-12.94
						c-9.02,0-18.05-6.2-19.33-18.51h12.94C1638.65,660.07,1647.68,666.28,1656.7,666.28z"/>
				</defs>
				<clipPath id="SVGID_00000053524798062509926110000010419940547579577490_">
					<use xlink:href="#SVGID_00000020365796405056829250000003198510968487288963_"  style="overflow:visible;"/>
				</clipPath>
				<g style="clip-path:url(#SVGID_00000053524798062509926110000010419940547579577490_);enable-background:new    ;">
					<path class="st2" d="M1656.7,666.28h-12.94c-9.02,0-18.05-6.2-19.33-18.51h12.94C1638.65,660.07,1647.68,666.28,1656.7,666.28"
						/>
				</g>
			</g>
			<g>
				<polygon class="st9" points="1637.37,647.77 1624.43,647.77 1622.49,592.37 1635.43,592.37 				"/>
			</g>
			<g>
				<polygon class="st11" points="1635.43,386.6 1622.49,386.6 1664.7,386.6 1677.64,386.6 				"/>
			</g>
			<g>
				<rect x="1622.49" y="386.6" class="st9" width="12.94" height="205.77"/>
			</g>
			<g>
				<path class="st10" d="M1677.64,386.6v117.73h10.88l47.55-56.07h49.03l-61.38,67.83l16.42,16.94
					c36.63,37.8,56.92,90.59,55.92,145.46l-0.63,34.66c-0.01,0.46-0.03,0.93-0.09,1.38c-1.47,12.17-10.48,18.42-19.49,18.42
					c-8.64,0-17.26-5.74-19.22-17.5l-6.68-72.48c-3.03-32.76-16.19-63.44-37.34-87.03l-24.65-27.49h-10.33v63.92l-1.79,55.85
					c-1.45,12.06-10.29,18.05-19.15,18.05c-9.02,0-18.05-6.2-19.33-18.51l-1.94-55.4V386.6H1677.64z"/>
			</g>
		</g>
		<g class="st0">
			<g class="st0">
				<defs>
					<path id="SVGID_00000034083589667779019420000006426099468409373069_" class="st0" d="M2123.85,571.65h-12.94
						c-6.08,0-12.17-3.84-13.25-11.53h12.94C2111.68,567.81,2117.77,571.65,2123.85,571.65z"/>
				</defs>
				<clipPath id="SVGID_00000179647567056856887370000015667573229118089625_">
					<use xlink:href="#SVGID_00000034083589667779019420000006426099468409373069_"  style="overflow:visible;"/>
				</clipPath>
				<g style="clip-path:url(#SVGID_00000179647567056856887370000015667573229118089625_);enable-background:new    ;">
					<path class="st2" d="M2123.85,571.65h-12.94c-6.08,0-12.17-3.84-13.25-11.53h12.94
						C2111.68,567.81,2117.77,571.65,2123.85,571.65"/>
				</g>
			</g>
			<g class="st0">
				<defs>
					<path id="SVGID_00000035515640156214916710000008769879255792047779_" class="st0" d="M2110.6,560.11h-12.94
						c-0.3-3.13-6.04-62.56-6.04-63.77c0-15.38-7.32-23.07-21.94-23.07h12.94c14.62,0,21.94,7.69,21.94,23.07
						C2104.56,497.56,2110.3,556.99,2110.6,560.11z"/>
				</defs>
				<clipPath id="SVGID_00000085940875349765293120000004090830946472237502_">
					<use xlink:href="#SVGID_00000035515640156214916710000008769879255792047779_"  style="overflow:visible;"/>
				</clipPath>
				<g style="clip-path:url(#SVGID_00000085940875349765293120000004090830946472237502_);enable-background:new    ;">
					<path class="st2" d="M2110.6,560.11h-12.94c-0.3-3.13-6.04-62.56-6.04-63.77c0-15.38-7.32-23.07-21.94-23.07h12.94
						c14.62,0,21.94,7.69,21.94,23.07C2104.56,497.56,2110.3,556.99,2110.6,560.11"/>
				</g>
			</g>
			<g class="st0">
				<defs>
					<path id="SVGID_00000039092537460426356970000009731973686687152313_" class="st0" d="M2049.63,468.61h-12.94
						c10.08-15.08,25.92-22.61,47.55-22.61h12.94C2075.55,446,2059.7,453.54,2049.63,468.61z"/>
				</defs>
				<clipPath id="SVGID_00000159443542913600077030000010539781390907727288_">
					<use xlink:href="#SVGID_00000039092537460426356970000009731973686687152313_"  style="overflow:visible;"/>
				</clipPath>
				<g style="clip-path:url(#SVGID_00000159443542913600077030000010539781390907727288_);enable-background:new    ;">
					<path class="st2" d="M2049.63,468.61h-12.94c3.87-5.79,8.59-10.46,14.15-14.03h12.94
						C2058.21,458.15,2053.49,462.83,2049.63,468.61"/>
					<path class="st5" d="M2063.78,454.59h-12.94c4.34-2.77,9.19-4.88,14.55-6.31h12.94
						C2072.97,449.71,2068.11,451.81,2063.78,454.59"/>
					<path class="st4" d="M2078.33,448.28h-12.94c5.7-1.52,11.98-2.28,18.84-2.28h12.94C2090.31,446,2084.03,446.76,2078.33,448.28"
						/>
				</g>
			</g>
			<g class="st0">
				<defs>
					<path id="SVGID_00000082332758984657199880000009711029175002077114_" class="st0" d="M2030.22,734.08h-12.94
						c-8.82,0-17.68-6.43-19.82-20.21h12.94C2012.55,727.65,2021.4,734.08,2030.22,734.08z"/>
				</defs>
				<clipPath id="SVGID_00000049182888862738034070000005607744923476193970_">
					<use xlink:href="#SVGID_00000082332758984657199880000009711029175002077114_"  style="overflow:visible;"/>
				</clipPath>
				<g style="clip-path:url(#SVGID_00000049182888862738034070000005607744923476193970_);enable-background:new    ;">
					<path class="st2" d="M2030.22,734.08h-12.94c-8.82,0-17.68-6.43-19.82-20.21h12.94
						C2012.55,727.65,2021.4,734.08,2030.22,734.08"/>
				</g>
			</g>
			<g>
				<polygon class="st9" points="2010.4,713.86 1997.46,713.86 1996.13,592.37 2009.07,592.37 				"/>
			</g>
			<g>
				<rect x="1996.13" y="448.26" class="st9" width="12.94" height="144.11"/>
			</g>
			<g>
				<polygon class="st11" points="2009.07,448.26 1996.13,448.26 2038.34,448.26 2051.29,448.26 				"/>
			</g>
			<g>
				<path class="st10" d="M2097.18,446c30.97,0,42.55,19.23,42.55,51.19l-2.61,62.85c-1.05,7.73-7.16,11.6-13.26,11.6
					c-6.08,0-12.17-3.84-13.25-11.53c-0.3-3.13-6.04-62.56-6.04-63.77c0-15.38-7.32-23.07-21.94-23.07
					c-20.89,0-31.33,11.41-31.33,34.22v84.87l-1.21,121.29c-1.27,13.24-10.54,20.41-19.85,20.41c-8.82,0-17.68-6.43-19.82-20.21
					l-1.33-121.49V448.26h42.21l-2.58,20.2l0.92,0.15C2059.7,453.54,2075.55,446,2097.18,446z"/>
			</g>
		</g>
		<g class="st0">
			<g class="st0">
				<defs>
					<path id="SVGID_00000072270894397592215890000014077638306812415893_" class="st0" d="M2272.85,487.91h-12.94
						c-0.25-1.21-0.43-2.11-0.56-2.72h12.94C2272.42,485.79,2272.6,486.7,2272.85,487.91z"/>
				</defs>
				<clipPath id="SVGID_00000011728149344897096910000006686595331807774093_">
					<use xlink:href="#SVGID_00000072270894397592215890000014077638306812415893_"  style="overflow:visible;"/>
				</clipPath>
				<g style="clip-path:url(#SVGID_00000011728149344897096910000006686595331807774093_);enable-background:new    ;">
					<path class="st2" d="M2272.85,487.91h-12.94c-0.25-1.21-0.43-2.11-0.56-2.72h12.94C2272.42,485.79,2272.6,486.7,2272.85,487.91
						"/>
				</g>
			</g>
			<g class="st0">
				<defs>
					<path id="SVGID_00000069359254078139268390000015867364899295861439_" class="st0" d="M2237.83,570.96h-12.94
						c26.66,0,40-6.33,40-18.99c0-12.16-8.35-18.24-25.07-18.24h12.94c16.72,0,25.07,6.08,25.07,18.24
						C2277.83,564.63,2264.49,570.96,2237.83,570.96z"/>
				</defs>
				<clipPath id="SVGID_00000023266120332493124540000005691397749006402699_">
					<use xlink:href="#SVGID_00000069359254078139268390000015867364899295861439_"  style="overflow:visible;"/>
				</clipPath>
				<g style="clip-path:url(#SVGID_00000023266120332493124540000005691397749006402699_);enable-background:new    ;">
					<path class="st4" d="M2237.83,570.96h-12.94c9.57,0,17.43-0.82,23.57-2.45h12.94C2255.26,570.14,2247.4,570.96,2237.83,570.96"
						/>
					<path class="st5" d="M2261.39,568.51h-12.94c3.67-0.98,6.73-2.24,9.17-3.8h12.94C2268.12,566.27,2265.06,567.54,2261.39,568.51
						"/>
					<path class="st2" d="M2270.56,564.71h-12.94c4.84-3.1,7.27-7.34,7.27-12.74c0-12.16-8.35-18.24-25.07-18.24h12.94
						c16.72,0,25.07,6.08,25.07,18.24C2277.83,557.37,2275.4,561.61,2270.56,564.71"/>
				</g>
			</g>
			<g class="st0">
				<defs>
					<path id="SVGID_00000086677469208680472470000004548956564211554973_" class="st0" d="M2272.3,485.19h-12.94
						c-0.86-6.93-3.29-11.25-7.28-12.96c-3.99-1.71-13.67-2.57-29.03-2.57h12.94c15.36,0,25.04,0.86,29.03,2.57
						C2269,473.94,2271.44,478.26,2272.3,485.19z"/>
				</defs>
				<clipPath id="SVGID_00000072269870794507549300000009117357284417361029_">
					<use xlink:href="#SVGID_00000086677469208680472470000004548956564211554973_"  style="overflow:visible;"/>
				</clipPath>
				<g style="clip-path:url(#SVGID_00000072269870794507549300000009117357284417361029_);enable-background:new    ;">
					<path class="st2" d="M2272.3,485.19h-12.94c-0.86-6.93-3.29-11.25-7.28-12.96c-3.99-1.71-13.67-2.57-29.03-2.57h12.94
						c15.36,0,25.04,0.86,29.03,2.57C2269,473.94,2271.44,478.26,2272.3,485.19"/>
				</g>
			</g>
			<g class="st0">
				<defs>
					<path id="SVGID_00000069378325618714440890000008372261584888537755_" class="st0" d="M2252.75,533.73h-12.94
						c-37.73,0-62.58-2.91-74.56-8.74c-11.98-5.82-17.97-17.94-17.97-36.33c0-16.48,5.47-27.63,16.4-33.46
						c10.94-5.82,31.95-8.74,63.04-8.74h12.94c-31.1,0-52.11,2.92-63.04,8.74c-10.94,5.83-16.4,16.98-16.4,33.46
						c0,18.4,5.99,30.51,17.97,36.33C2190.17,530.82,2215.02,533.73,2252.75,533.73z"/>
				</defs>
				<clipPath id="SVGID_00000127750552690575788650000005847166763503280768_">
					<use xlink:href="#SVGID_00000069378325618714440890000008372261584888537755_"  style="overflow:visible;"/>
				</clipPath>
				<g style="clip-path:url(#SVGID_00000127750552690575788650000005847166763503280768_);enable-background:new    ;">
					<path class="st2" d="M2252.75,533.73h-12.94c-37.73,0-62.58-2.91-74.56-8.74c-11.98-5.82-17.97-17.94-17.97-36.33
						c0-15.39,4.77-26.13,14.31-32.23h12.94c-9.54,6.1-14.31,16.85-14.31,32.23c0,18.4,5.99,30.51,17.97,36.33
						C2190.17,530.82,2215.02,533.73,2252.75,533.73"/>
					<path class="st5" d="M2174.53,456.42h-12.94c0.68-0.43,1.38-0.84,2.1-1.23c2.85-1.52,6.38-2.84,10.59-3.96h12.94
						c-4.21,1.12-7.74,2.44-10.59,3.96C2175.9,455.58,2175.2,455.99,2174.53,456.42"/>
					<path class="st4" d="M2187.22,451.24h-12.94c11.97-3.19,29.45-4.78,52.45-4.78h12.94
						C2216.67,446.45,2199.19,448.05,2187.22,451.24"/>
				</g>
			</g>
			<g class="st0">
				<defs>
					<path id="SVGID_00000179623704211032933280000016013540113715731391_" class="st0" d="M2239.91,666.61h-12.94
						c-30.1,0-54.65-59.95-64.39-81.63c-5.19-11.55-16.59-17.59-16.59-34.37h12.94c0,16.79,11.4,22.82,16.59,34.37
						C2185.27,606.66,2209.81,666.61,2239.91,666.61z"/>
				</defs>
				<clipPath id="SVGID_00000037652789250276060740000015961456395345189765_">
					<use xlink:href="#SVGID_00000179623704211032933280000016013540113715731391_"  style="overflow:visible;"/>
				</clipPath>
				<g style="clip-path:url(#SVGID_00000037652789250276060740000015961456395345189765_);enable-background:new    ;">
					<path class="st2" d="M2239.91,666.61h-12.94c-30.1,0-54.65-59.95-64.39-81.63c-5.19-11.55-16.59-17.59-16.59-34.37h12.94
						c0,16.79,11.4,22.82,16.59,34.37C2185.27,606.66,2209.81,666.61,2239.91,666.61"/>
				</g>
			</g>
			<g>
				<rect x="2145.99" y="546.99" class="st9" width="12.94" height="3.62"/>
			</g>
			<g>
				<path class="st10" d="M2239.67,446.45c29.37,0,49.13,2.81,59.26,8.44c10.14,5.62,15.2,16.63,15.2,33.01h-41.28
					c-0.25-1.21-0.43-2.11-0.56-2.72c-0.86-6.93-3.29-11.25-7.28-12.96c-3.99-1.71-13.67-2.57-29.03-2.57c-22,0-33,5.83-33,17.49
					c0,7.94,1.94,12.66,5.81,14.17c3.87,1.51,16.99,2.72,39.35,3.62c30.1,1.21,49.71,4.47,58.8,9.8s13.64,16.23,13.64,32.71
					c0,17.59-11.55,24.34-18.15,36.55c-14.38,26.58-31.18,82.61-62.52,82.61c-30.1,0-54.65-59.95-64.39-81.63
					c-5.19-11.55-16.59-17.59-16.59-34.37v-3.62h43.87c-0.62,2.02-0.98,3.62-1.1,4.82c-1.72,12.76,10.32,19.14,36.13,19.14
					c26.66,0,40-6.33,40-18.99c0-12.16-8.35-18.24-25.07-18.24c-37.73,0-62.58-2.91-74.56-8.74c-11.98-5.82-17.97-17.94-17.97-36.33
					c0-16.48,5.47-27.63,16.4-33.46C2187.56,449.37,2208.57,446.45,2239.67,446.45z"/>
			</g>
			<g>
				<polygon class="st11" points="2158.94,546.99 2145.99,546.99 2189.86,546.99 2202.8,546.99 				"/>
			</g>
		</g>
		<g class="st0">
			<g class="st0">
				<defs>
					<path id="SVGID_00000123426478635964193920000002898602013453089941_" class="st0" d="M1489.97,666.15l-12.94,0
						c-8.5,0-17-5.74-18.89-17.12h12.94C1472.97,660.4,1481.47,666.15,1489.97,666.15z"/>
				</defs>
				<clipPath id="SVGID_00000124134275180478110050000008239818009662862518_">
					<use xlink:href="#SVGID_00000123426478635964193920000002898602013453089941_"  style="overflow:visible;"/>
				</clipPath>
				<g style="clip-path:url(#SVGID_00000124134275180478110050000008239818009662862518_);enable-background:new    ;">
					<path class="st2" d="M1489.97,666.15h-12.94c-8.5,0-17-5.74-18.89-17.12h12.94C1472.97,660.4,1481.47,666.15,1489.97,666.15"/>
				</g>
			</g>
			<g>
				<polygon class="st9" points="1471.08,649.03 1458.13,649.03 1457.38,590.07 1470.32,590.07 				"/>
			</g>
			<g>
				<polygon class="st9" points="1470.32,590.07 1457.38,590.07 1458.32,580.92 1471.26,580.92 				"/>
			</g>
			<g>
				<rect x="1457.38" y="495.4" class="st9" width="12.94" height="23.36"/>
			</g>
			<g>
				<polygon class="st11" points="1469.58,518.77 1456.64,518.77 1457.38,518.77 1470.32,518.77 				"/>
			</g>
			<g class="st0">
				<defs>
					<path id="SVGID_00000182494630906141739710000012635497686140207788_" class="st0" d="M1470.32,495.4h-12.94
						c0-11.25-2.4-18.71-7.19-22.38s-14.62-5.51-29.5-5.51h12.94c14.87,0,24.71,1.84,29.5,5.51
						C1467.92,476.69,1470.32,484.15,1470.32,495.4z"/>
				</defs>
				<clipPath id="SVGID_00000143586976563935541390000018062048504619083655_">
					<use xlink:href="#SVGID_00000182494630906141739710000012635497686140207788_"  style="overflow:visible;"/>
				</clipPath>
				<g style="clip-path:url(#SVGID_00000143586976563935541390000018062048504619083655_);enable-background:new    ;">
					<path class="st2" d="M1470.32,495.4h-12.94c0-11.25-2.4-18.71-7.19-22.38s-14.62-5.51-29.5-5.51h12.94
						c14.87,0,24.71,1.84,29.5,5.51C1467.92,476.69,1470.32,484.15,1470.32,495.4"/>
				</g>
			</g>
			<g class="st0">
				<defs>
					<path id="SVGID_00000132810419207597120300000016779665315882992029_" class="st0" d="M1432.16,568.51h-12.94
						c25.68,0,45.17-9.06,38.52-21.25c-0.43-0.79-13.7-21.71-41.1-21.71h12.94c27.4,0,40.67,20.92,41.1,21.71
						C1477.33,559.45,1457.84,568.51,1432.16,568.51z"/>
				</defs>
				<clipPath id="SVGID_00000174588642631116168890000002596710873534920638_">
					<use xlink:href="#SVGID_00000132810419207597120300000016779665315882992029_"  style="overflow:visible;"/>
				</clipPath>
				<g style="clip-path:url(#SVGID_00000174588642631116168890000002596710873534920638_);enable-background:new    ;">
					<path class="st4" d="M1432.16,568.51h-12.94c8.26,0,15.89-0.94,22.2-2.62h12.94C1448.05,567.57,1440.43,568.51,1432.16,568.51"
						/>
					<path class="st5" d="M1454.37,565.89h-12.94c4.5-1.2,8.34-2.77,11.28-4.65h12.94C1462.71,563.12,1458.87,564.7,1454.37,565.89"
						/>
					<path class="st2" d="M1465.64,561.25h-12.94c5.74-3.67,8.03-8.51,5.04-13.98c-0.43-0.79-13.7-21.71-41.1-21.71h12.94
						c27.4,0,40.67,20.92,41.1,21.71C1473.67,552.73,1471.39,557.57,1465.64,561.25"/>
				</g>
			</g>
			<g class="st0">
				<defs>
					<path id="SVGID_00000024686376317213416750000010475958827716992414_" class="st0" d="M1358.24,487.72h-12.94
						c0-17.29,4.91-28.84,14.74-34.67c9.83-5.83,29.31-8.75,58.44-8.75h12.94c-29.12,0-48.6,2.92-58.44,8.75
						C1363.16,458.87,1358.24,470.43,1358.24,487.72z"/>
				</defs>
				<clipPath id="SVGID_00000147201277383678133760000002487966336011330688_">
					<use xlink:href="#SVGID_00000024686376317213416750000010475958827716992414_"  style="overflow:visible;"/>
				</clipPath>
				<g style="clip-path:url(#SVGID_00000147201277383678133760000002487966336011330688_);enable-background:new    ;">
					<path class="st2" d="M1358.24,487.72h-12.94c0-16.83,4.66-28.23,13.98-34.2h12.94C1362.9,459.49,1358.24,470.88,1358.24,487.72
						"/>
					<path class="st5" d="M1372.22,453.52h-12.94c0.25-0.16,0.51-0.32,0.76-0.47c2.88-1.71,6.59-3.17,11.12-4.37h12.94
						c-4.54,1.21-8.24,2.67-11.12,4.37C1372.73,453.2,1372.48,453.36,1372.22,453.52"/>
					<path class="st4" d="M1384.11,448.68h-12.94c10.95-2.92,26.72-4.37,47.31-4.37h12.94
						C1410.83,444.3,1395.06,445.76,1384.11,448.68"/>
				</g>
			</g>
			<g class="st0">
				<defs>
					<path id="SVGID_00000072978511417662092960000016261065695948114586_" class="st0" d="M1415.59,665.71h-12.94
						c-42.64,0-64.54-88.8-64.54-118.45c0-29.95,21.81-44.93,65.43-44.93h12.94c-43.62,0-65.43,14.98-65.43,44.93
						C1351.06,576.91,1372.95,665.71,1415.59,665.71z"/>
				</defs>
				<clipPath id="SVGID_00000070797196273220036400000012944276554303180466_">
					<use xlink:href="#SVGID_00000072978511417662092960000016261065695948114586_"  style="overflow:visible;"/>
				</clipPath>
				<g style="clip-path:url(#SVGID_00000070797196273220036400000012944276554303180466_);enable-background:new    ;">
					<path class="st2" d="M1415.59,665.71h-12.94c-42.64,0-64.54-88.8-64.54-118.45c0-15.51,5.85-27,17.54-34.48h12.94
						c-11.69,7.48-17.54,18.97-17.54,34.48C1351.06,576.91,1372.95,665.71,1415.59,665.71"/>
					<path class="st5" d="M1368.59,512.79h-12.94c4.59-2.94,10.09-5.26,16.49-6.96h12.94
						C1378.68,507.53,1373.19,509.85,1368.59,512.79"/>
					<path class="st4" d="M1385.08,505.83h-12.94c8.77-2.33,19.24-3.49,31.41-3.49h12.94
						C1404.32,502.33,1393.86,503.5,1385.08,505.83"/>
				</g>
			</g>
			<g>
				<path class="st10" d="M1495.76,455c11.18,7.14,16.78,20.75,16.78,40.85v94.21l-3.83,59.57c-2.16,11.04-10.45,16.51-18.74,16.51
					c-8.5,0-16.99-5.74-18.89-17.12l-0.76-58.96l0.94-9.14c-8.26,15.53-26.64,84.79-55.66,84.79c-42.64,0-64.54-88.8-64.54-118.45
					c0-29.95,21.81-44.93,65.43-44.93c29.13,0,46.82,5.48,53.09,16.43h0.74V495.4c0-11.25-2.4-18.71-7.19-22.38
					c-4.79-3.67-14.62-5.51-29.5-5.51c-21.51,0-32.25,6.74-32.25,20.2h-43.14c0-17.29,4.91-28.84,14.74-34.67
					c9.83-5.83,29.31-8.75,58.44-8.75C1463.13,444.3,1484.58,447.88,1495.76,455z M1432.16,568.51c25.68,0,45.17-9.06,38.52-21.25
					c-0.43-0.79-13.7-21.71-41.1-21.71c-23.85,0-35.76,6.73-35.76,20.2c0,9.35,2.46,15.48,7.37,18.4
					C1406.11,567.06,1416.43,568.51,1432.16,568.51"/>
			</g>
		</g>
		<g class="st0">
			<g>
				<polygon class="st9" points="1935.34,503.07 1922.4,503.07 1922.22,497.34 1935.16,497.34 				"/>
			</g>
			<g>
				<polygon class="st11" points="1934.98,543.92 1922.04,543.92 1964.43,543.92 1977.38,543.92 				"/>
			</g>
			<g class="st0">
				<defs>
					<path id="SVGID_00000170244096485940772010000016351118273488428974_" class="st0" d="M1897.74,565.93h-12.94
						c15.48,0,25.56-1.38,30.23-4.15c4.67-2.76,7.01-8.71,7.01-17.86h12.94c0,9.14-2.34,15.09-7.01,17.86
						C1923.3,564.55,1913.23,565.93,1897.74,565.93z"/>
				</defs>
				<clipPath id="SVGID_00000041998737904385774350000000983424866180321179_">
					<use xlink:href="#SVGID_00000170244096485940772010000016351118273488428974_"  style="overflow:visible;"/>
				</clipPath>
				<g style="clip-path:url(#SVGID_00000041998737904385774350000000983424866180321179_);enable-background:new    ;">
					<path class="st4" d="M1897.74,565.93h-12.94c11.3,0,19.72-0.73,25.26-2.21H1923C1917.46,565.2,1909.04,565.93,1897.74,565.93"
						/>
					<path class="st5" d="M1923,563.72h-12.94c2.05-0.55,3.71-1.19,4.97-1.94c0.11-0.07,0.22-0.13,0.33-0.2h12.94
						c-0.11,0.07-0.22,0.14-0.33,0.2C1926.71,562.53,1925.05,563.18,1923,563.72"/>
					<path class="st2" d="M1928.3,561.58h-12.94c4.45-2.85,6.68-8.73,6.68-17.65h12.94C1934.98,552.85,1932.75,558.73,1928.3,561.58
						"/>
				</g>
			</g>
			<g class="st0">
				<defs>
					<path id="SVGID_00000039121283874178162820000012268035650884927883_" class="st0" d="M1935.16,497.34h-12.94
						c0-11.46-2.43-18.89-7.28-22.31c-4.86-3.41-15.4-5.12-31.62-5.12h12.94c16.22,0,26.76,1.71,31.62,5.12
						C1932.73,478.45,1935.16,485.88,1935.16,497.34z"/>
				</defs>
				<clipPath id="SVGID_00000093889852725945714340000016738809681656394431_">
					<use xlink:href="#SVGID_00000039121283874178162820000012268035650884927883_"  style="overflow:visible;"/>
				</clipPath>
				<g style="clip-path:url(#SVGID_00000093889852725945714340000016738809681656394431_);enable-background:new    ;">
					<path class="st2" d="M1935.16,497.34h-12.94c0-11.46-2.43-18.89-7.28-22.31c-4.86-3.41-15.4-5.12-31.62-5.12h12.94
						c16.22,0,26.76,1.71,31.62,5.12C1932.73,478.45,1935.16,485.88,1935.16,497.34"/>
				</g>
			</g>
			<g>
				<polygon class="st11" points="1858.48,503.07 1845.54,503.07 1922.4,503.07 1935.34,503.07 				"/>
			</g>
			<g>
				<path class="st10" d="M1977.38,524.17h-119.26c-0.25,3.22-0.37,5.33-0.37,6.34c0,14.17,2.68,23.62,8.02,28.34
					c5.35,4.72,16,7.08,31.98,7.08c15.48,0,25.56-1.38,30.23-4.15c4.67-2.76,7.01-8.71,7.01-17.86h42.4v5.57
					c0,28.14-32.98,114.78-84.59,114.78c-35.03,0-65.94-69.69-70.27-86.21c-3.84-14.68-7.54-31.37-7.54-62.93
					c0-28.04,5.65-46.88,16.96-56.53c11.3-9.65,33.37-14.47,66.17-14.47c31.46,0,52.53,4.7,63.23,14.09
					c10.69,9.4,16.04,27.86,16.04,55.39V524.17z M1865.58,476.09c-4.74,4.11-7.1,13.11-7.1,26.98h76.87l-0.18-5.73
					c0-11.46-2.43-18.89-7.28-22.31c-4.86-3.41-15.4-5.12-31.62-5.12C1880.54,469.91,1870.31,471.97,1865.58,476.09"/>
			</g>
			<g class="st0">
				<defs>
					<path id="SVGID_00000129914831661168018680000004341927183929441425_" class="st0" d="M1892.78,664.27h-12.94
						c-35.03,0-65.94-69.69-70.27-86.21c-3.84-14.68-7.54-31.37-7.54-62.93c0-28.04,5.65-46.88,16.96-56.53
						c11.3-9.65,33.37-14.47,66.17-14.47l12.94,0c-32.81,0-54.87,4.82-66.17,14.47c-11.31,9.65-16.96,28.48-16.96,56.53
						c0,31.55,3.69,48.25,7.54,62.93C1826.84,594.58,1857.75,664.27,1892.78,664.27z"/>
				</defs>
				<clipPath id="SVGID_00000085929833503015430640000007487550175036332958_">
					<use xlink:href="#SVGID_00000129914831661168018680000004341927183929441425_"  style="overflow:visible;"/>
				</clipPath>
				<g style="clip-path:url(#SVGID_00000085929833503015430640000007487550175036332958_);enable-background:new    ;">
					<path class="st2" d="M1892.78,664.27h-12.94c-35.03,0-65.94-69.69-70.27-86.21c-3.84-14.68-7.54-31.37-7.54-62.93
						c0-28.04,5.65-46.88,16.96-56.53c1.17-1,2.45-1.94,3.85-2.84h12.94c-1.4,0.89-2.68,1.84-3.85,2.84
						c-11.31,9.65-16.96,28.48-16.96,56.53c0,31.55,3.69,48.25,7.54,62.93C1826.84,594.58,1857.75,664.27,1892.78,664.27"/>
					<path class="st5" d="M1835.78,455.77h-12.94c4.44-2.84,10.05-5.16,16.82-6.97h12.94
						C1845.83,450.6,1840.23,452.93,1835.78,455.77"/>
					<path class="st4" d="M1852.6,448.8h-12.94c11.7-3.11,26.87-4.67,45.51-4.67h12.94C1879.47,444.13,1864.3,445.69,1852.6,448.8"
						/>
				</g>
			</g>
		</g>
	</g>
</g>
</svg>
