<?xml version="1.0" encoding="utf-8"?>
<!-- Generator: Adobe Illustrator 25.4.3, SVG Export Plug-In . SVG Version: 6.00 Build 0)  -->
<svg version="1.1" id="Layer_1" xmlns="http://www.w3.org/2000/svg" xmlns:xlink="http://www.w3.org/1999/xlink" x="0px" y="0px"
	 viewBox="0 0 612 792" style="enable-background:new 0 0 612 792;" xml:space="preserve">
<style type="text/css">
	.st0{fill:#1C75BC;}
	.st1{fill:#2B3990;}
	.st2{fill:#FFFFFF;stroke:#2B3990;stroke-miterlimit:10;}
	.st3{fill:#2B3990;stroke:#2B3990;stroke-width:0.5;stroke-miterlimit:10;}
	.st4{opacity:0.5;fill:#939598;}
</style>
<g>
	<g>
		
			<ellipse transform="matrix(0.9486 -0.3164 0.3164 0.9486 -68.788 127.7385)" class="st0" cx="358.98" cy="275.7" rx="40.92" ry="10.38"/>
		
			<ellipse transform="matrix(0.9486 -0.3164 0.3164 0.9486 -66.4514 126.5135)" class="st1" cx="356.38" cy="267.9" rx="50.8" ry="12.88"/>
		<path class="st2" d="M372.22,252.16c2.79,8.35-4.36,12.19-15.07,15.76s-20.94,5.53-23.72-2.82c-2.79-8.35,3.64-18.02,14.35-21.6
			C358.49,239.93,369.43,243.81,372.22,252.16z"/>
		<g>
			<circle class="st3" cx="352.44" cy="256.11" r="2.54"/>
			<circle class="st3" cx="341.78" cy="259.66" r="2.54"/>
			<circle class="st3" cx="363.11" cy="252.55" r="2.54"/>
		</g>
		<polygon class="st4" points="401.79,322.93 344.48,292.9 351.19,291.51 		"/>
		<polygon class="st4" points="403.08,319.85 362.28,288.47 369.16,286.36 		"/>
		<polygon class="st4" points="405.8,317.6 378.37,282.09 384.5,279.02 		"/>
	</g>
	<path class="st1" d="M313.17,319.04h-14.39h-11.05h-17.41h-23.54c-1.93,0-3.51,1.58-3.51,3.51v4.03c0,1.93,1.58,3.51,3.51,3.51
		h17.78v63.14c0,3.17,2.59,5.76,5.76,5.76h22.7c3.17,0,5.76-2.59,5.76-5.76v-63.14h14.39c1.93,0,3.51-1.58,3.51-3.51v-4.03
		C316.68,320.62,315.1,319.04,313.17,319.04z"/>
	<path class="st1" d="M352.62,358.36l18.37-0.19h1.41h19.07c0.25,0,0.45-0.2,0.45-0.45v-23.73c0-8.22-6.73-14.95-14.95-14.95h-40.65
		c-8.22,0-14.95,6.73-14.95,14.95v50.06c0,8.22,6.73,14.95,14.95,14.95h40.65c8.22,0,14.95-6.73,14.95-14.95v-4.45l-16.73,0.15v2.03
		c0,4.09-3.24,6.24-7.33,6.24l-11.94,0.05c-4.09,0-7.54-2.15-7.54-6.24v-19.2C348.37,360.27,350.27,358.36,352.62,358.36z
		 M348.37,345.38v-9.4c0-2.8,2.29-5.09,5.09-5.09h16.85c2.8,0,5.09,2.29,5.09,5.09v9.4c0,2.15-1.76,3.92-3.92,3.92h-19.19
		C350.13,349.3,348.37,347.54,348.37,345.38z"/>
	<path class="st1" d="M456.6,381.77c0,4.09-3.33,5.26-7.42,5.26l-11.94,0.05c-4.09,0-7.46-1.17-7.46-5.26v-19.2
		c0-0.12,0.03-0.24,0.04-0.36c-0.02-0.06-0.04-0.12-0.04-0.18v-16.7v-10.51v2.86c0-2.19,0.74-6.84,6.82-6.84h13.45
		c5.49,0,6.41,5.11,6.41,7.3v-3.15v6.39l16.87-0.17v-7.28c0-8.22-6.73-14.95-14.95-14.95h-40.65c-8.22,0-14.95,6.73-14.95,14.95
		v50.06c0,8.22,6.73,14.95,14.95,14.95h40.65c8.22,0,14.95-6.73,14.95-14.95v-4.45l-16.73,0.15V381.77z"/>
	<path class="st1" d="M548.92,319.68c0,0-4.36,0-4.36,0h-24.18h-21.77v-34.11c0-1.69-1.39-3.08-3.08-3.08h-8.26
		c-1.7,0-3.09,1.39-3.09,3.09v110.34c0,1.69,1.39,3.08,3.08,3.08h8.26c1.7,0,3.09-1.39,3.09-3.09v-60.74c0-2.46,1.99-4.46,4.46-4.46
		h12.86c2.46,0,4.46,1.99,4.46,4.46v58.66c0,2.85,2.31,5.17,5.17,5.17h23.71c2.95,0,5.34-2.39,5.34-5.34v-68.28
		C554.61,322.24,552.05,319.68,548.92,319.68z"/>
	<path class="st1" d="M122.3,399c0,0-4.36,0-4.36,0H93.77l-25.05,0.11l0.1-2.97c0,1.69,1.89,2.97,0.2,2.97h-8.26
		c-1.7,0-3.09-1.39-3.09-3.09l-0.27-74.15c0-1.69,1.39-3.08,3.08-3.08h8.26c1.7,0,3.09,1.39,3.09,3.09l-0.16,60.5
		c0,2.46,1.99,4.46,4.46,4.46h12.86c2.46,0,4.46-1.99,4.46-4.46l0.16-58.42c0-2.85,2.31-5.17,5.17-5.17h23.71
		c2.95,0,5.34,2.39,5.34,5.34l0.18,69.18C127.99,396.44,125.43,399,122.3,399z"/>
	<path class="st1" d="M226,282.65l-27.54-0.09c-1.93,0-3.05,1.42-3.05,3.35l-0.02,107.26c0,3.17,2.59,5.76,5.76,5.76h22.7
		c3.17,0,5.76-2.59,5.76-5.76l0.01-107.32C229.63,283.5,228.17,282.67,226,282.65z"/>
	<path class="st1" d="M175.18,319.1l-27.54-0.07c-1.93,0-3.05,0.99-3.05,2.33l-0.02,74.52c0,2.2,2.59,4,5.76,4h22.7
		c3.17,0,5.76-1.8,5.76-4l0.01-74.56C178.81,319.7,177.35,319.12,175.18,319.1z"/>
</g>
</svg>
